<?xml version="1.0" encoding="UTF-8" standalone="no"?>
<!-- Created with Inkscape (http://www.inkscape.org/) -->

<svg
   xmlns:dc="http://purl.org/dc/elements/1.1/"
   xmlns:cc="http://creativecommons.org/ns#"
   xmlns:rdf="http://www.w3.org/1999/02/22-rdf-syntax-ns#"
   xmlns:svg="http://www.w3.org/2000/svg"
   xmlns="http://www.w3.org/2000/svg"
   xmlns:sodipodi="http://sodipodi.sourceforge.net/DTD/sodipodi-0.dtd"
   xmlns:inkscape="http://www.inkscape.org/namespaces/inkscape"
   width="744.09448819"
   height="1052.3622047"
   id="svg3854"
   version="1.1"
   inkscape:version="0.48.5 r10040"
   sodipodi:docname="New document 5">
  <defs
     id="defs3856" />
  <sodipodi:namedview
     id="base"
     pagecolor="#ffffff"
     bordercolor="#666666"
     borderopacity="1.0"
     inkscape:pageopacity="0.0"
     inkscape:pageshadow="2"
     inkscape:zoom="0.35"
     inkscape:cx="375"
     inkscape:cy="520"
     inkscape:document-units="px"
     inkscape:current-layer="layer1"
     showgrid="false"
     inkscape:window-width="499"
     inkscape:window-height="442"
     inkscape:window-x="1984"
     inkscape:window-y="64"
     inkscape:window-maximized="0" />
  <metadata
     id="metadata3859">
    <rdf:RDF>
      <cc:Work
         rdf:about="">
        <dc:format>image/svg+xml</dc:format>
        <dc:type
           rdf:resource="http://purl.org/dc/dcmitype/StillImage" />
        <dc:title></dc:title>
      </cc:Work>
    </rdf:RDF>
  </metadata>
  <g
     inkscape:label="Layer 1"
     inkscape:groupmode="layer"
     id="layer1">
    <path
       d="m 390.14168,663.75414 -4.628,2.93139 -12.96779,2.91651 -18.56436,1.00639 -12.7102,-1.44939 -8.51845,-0.97139 -20.96064,-7.36498 -17.76033,-13.82621 -6.76372,-9.81015 -4.86402,-11.99434 -2.5978,-14.36817 0.0349,-16.93162 0,0 1.50517,-10.20404 2.65671,-9.12881 3.61741,-8.10067 4.38727,-7.11961 4.9663,-6.18562 5.35448,-5.29871 5.55183,-4.45889 5.55833,-3.66615 11.62672,-6.85875 12.23703,-6.3225 2.3725,-1.0275 -1.78047,-6.77188 -0.28703,-7.85937 -5.03121,3.25021 -5.07129,4.18151 -9.8775,3.49328 -4.04379,-2.19361 -3.55183,-2.99436 -3.54153,-3.45537 -4.01285,-3.57666 -1.14492,-1.01674 -1.54852,-1.44248 -1.1646,-1.59975 0.007,-1.48853 1.41925,0.0821 2.61481,1.98195 2.67058,2.08368 1.58661,0.38726 -0.86241,-5.04131 -3.4465,-8.43635 -4.12723,-8.88457 1.00364,-2.09955 2.35418,0.57344 2.83128,7.30131 2.94065,6.85166 1.54764,3.00662 0.515,-2.32166 -0.63438,-4.73912 -0.77964,-5.33127 1.08777,-1.5767 1.84887,0.92853 0.73456,4.74459 0.73918,4.32848 0.34989,2.7059 0.54921,1.45836 0.62047,0.44633 0.55438,-0.45696 0.35094,-1.25148 -0.0418,-2.58197 -0.0498,-2.93412 0.18226,-2.49514 0.6543,-1.26502 1.82978,1.68785 0.45975,4.22121 0.0447,4.35481 0.58456,2.08863 0.75156,-1.28727 0.69437,-2.80929 1.08672,-2.45727 1.9286,-0.23117 -0.985,14.25125 8.08953,-6.69922 9.30172,-5.13828 5.50244,2.24621 2.03989,5.70752 3.22767,8.15127 4.365,-0.5225 1.84375,-0.009 4.32875,-2.59125 5.3053,-3.55278 4.75964,-4.13007 4.19001,-4.63357 3.59645,-5.06327 2.97893,-5.41916 2.33746,-5.70127 1.67204,-5.90956 0.98266,-6.04407 -4.32625,-8.18875 -1.64473,3.48431 -1.83909,3.3679 -2.03843,2.96129 -2.24274,2.26447 -2.45205,1.27746 -2.66631,2.6e-4 -2.88558,-1.56717 -3.10981,-3.42477 -2.13875,-3.03148 -2.23063,-2.76571 -2.65062,-2.12492 -3.39875,-1.10914 -3.16709,0.0561 -4.13026,0.29716 -3.77846,-0.101 -2.11169,-1.1385 0.16191,-0.8942 1.43996,-0.2969 1.88809,-0.008 1.50629,-0.0272 2.9423,-1.72058 -2.57512,-4.34254 -4.48715,-4.63598 -2.79378,-2.6009 -0.53282,-0.49433 -0.56562,-0.50817 -0.37953,-0.4716 0.52975,-1.14107 1.72023,-0.37804 3.70345,3.9293 3.42764,2.62291 2.40565,0.4935 0.0648,-0.35441 -0.15963,-0.40246 -0.25971,-0.38184 -0.23545,-0.29254 -1.34816,-1.59343 -1.12621,-1.51938 -0.74278,-1.30704 -0.19785,-0.9564 0.37727,-0.43648 0.57742,0.0486 0.62664,0.3632 0.52492,0.50711 1.52535,1.76756 1.70746,1.93384 1.47637,1.39221 0.83207,0.14225 -0.31266,-2.00594 -0.51984,-2.18968 -0.19547,-1.76688 0.66047,-0.7375 0.95551,0.83203 0.7748,1.92985 0.79778,2.1164 1.02441,1.39172 1.25258,-0.61605 1.17429,-2.18614 1.04024,-2.06097 0.85039,-0.24059 0.15631,1.00521 -0.34491,1.39088 -0.48904,1.65127 -0.27611,1.78639 0.22592,2.00525 0.65986,1.82865 0.88135,1.7417 0.89037,1.7444 3.99766,5.63453 5.62984,2.99547 3.73312,-5.4886 2.82188,-6.4064 5.60625,-6.94875 -2.52157,-4.69019 -2.9971,-4.45885 -3.36989,-4.06763 -3.63989,-3.51729 -3.8071,-2.80709 -3.87157,-1.93724 -3.83324,-0.90777 -3.69215,0.28131 -7.18125,1.44125 -5.1276,3.07626 -5.2424,-2.39251 -5.12674,-0.28172 -4.76615,-0.67152 -4.33432,-1.01458 -3.83123,-1.31093 -3.25689,-1.56054 -2.61131,-1.76341 -1.89447,-1.91956 -1.10639,-2.02899 -0.19757,-2.67389 1.03316,-2.73896 2.0899,-2.7409 2.97264,-2.67969 3.68139,-2.55536 4.21615,-2.36787 4.57691,-2.11729 4.76367,-1.80354 3.91625,-3.79875 5.71,0.03 -0.1875,1.3675 8.6275,-0.305 10.47418,2.05435 10.54822,3.08849 10.37066,4.2653 9.94148,5.58483 9.26067,7.04703 8.32826,8.65194 7.1442,10.39951 5.70859,12.2898 0.82875,2.41375 13.36624,9.39875 1.15499,-0.0857 1.40105,-0.71941 1.53807,-1.22116 1.56605,-1.59091 1.48502,-1.82869 1.29496,-1.93448 0.99587,-1.90828 0.58775,-1.75012 -0.50872,-3.26173 -1.36441,-4.27342 -1.49098,-4.23991 -0.88839,-3.16119 0.46622,-0.76968 0.48017,-0.195 0.43822,0.17297 0.34039,0.33421 0.38019,0.66047 0.71231,1.50422 0.90541,1.68281 0.95959,1.19625 0.81831,-1.18791 0.78386,-3.581 0.93998,-3.72466 1.28659,-1.61893 0.67246,1.43424 -0.21653,2.97279 -0.24605,3.03116 0.58387,1.60931 1.70346,-1.72121 2.33732,-4.06847 2.89622,-5.11734 1.363,-0.32923 0.50655,1.19926 -2.13374,5.21324 -1.6318,4.19766 -0.005,2.69109 1.98271,-1.41371 3.50275,-4.01785 4.56548,-5.49368 1.3887,-0.0419 0.11775,1.45249 -4.03312,6.07153 -3.23946,4.74805 -1.2835,3.28132 1.698,0.48959 3.0248,-0.37255 2.94934,-0.46983 1.4716,0.19779 -0.99163,1.55785 -3.45853,1.39684 -4.35876,1.37199 -3.69232,1.48332 -2.00426,1.74093 -1.95018,2.71347 -1.90525,3.32803 -1.86954,3.5846 -3.67611,6.50298 -1.81264,2.20884 -1.81558,1.03243 -6.07953,-1.70953 -9.14047,-4.01297 0.16945,8.96018 -0.97974,9.09445 -2.17291,9.04888 -3.41008,8.82351 -4.69124,8.41834 -6.01636,7.83336 -7.3855,7.06856 -8.79862,6.12396 -14.76328,8.81562 -14.47548,6.73063 6.72203,9.71203 3.95922,9.46547 -6.87297,8.91969 -11.33828,6.33781 8.42,5.31625 7.91875,2.93375 -0.34729,1.46277 -3.30333,-0.93761 -2.84414,-0.26342 -2.17899,-0.0805 1.20848,1.13068 3.04808,1.68135 2.92762,1.85972 0.84707,1.66576 -2.18254,0.37789 -3.49996,-1.40664 -3.37621,-1.66353 -1.81129,-0.39273 1.70942,2.21808 3.89589,4.56615 4.66041,5.11468 0.0805,2.43735 -1.77693,-0.2015 -5.30775,-5.10523 -4.16918,-4.34385 -2.28364,-1.48318 2.86239,5.2998 3.39605,6.61771 3.36634,6.44842 -0.52517,2.38506 -1.65401,-0.25602 -4.26763,-7.16794 -4.28525,-7.56896 -3.57897,-6.00557 -1.8763,2.05467 0.0527,4.13205 0.79313,4.85342 -1.88369,0.5638 -3.04244,-10.84822 -0.7493,-5.42411 0.14964,-5.42411 6.065,-10.3575 10.88875,-8.28375 -6.4375,-3.69875 -5.42,-4.38875 -8.03,-7.14 -14.45765,5.47422 -9.8836,5.43953 -4.66534,4.10786 -5.47296,5.68903 -5.50111,7.2268 -4.74981,8.72115 -3.21904,10.17212 -0.90883,11.57966 2.18085,12.94382 6.04999,14.26456 11.46706,11.95147 13.27468,7.70009 14.07136,4.33282 13.85706,1.84968 12.63181,0.25066 10.3956,-0.46425 7.14841,-0.29503 2.89028,0.75831"
       style="fill:none;stroke:#000000;stroke-width:1.25;stroke-opacity:1"
       id="path60"
       inkscape:connector-curvature="0"
       sodipodi:nodetypes="cccccccccccccccccccccccccccccccccccccccccccccccccccccccccccccccccccccccccccccccccccccccccccccccccccccccccccccccccccccccccccccccccccccccccccccccccccccccccccccccccccccccccccccccccccccccccccccccccccccccccccccccccccccccccccccccccccccccccccccccccccccccccccccccccccccccccccccccccccccccccccccccccccccccccccccccccccccccccccccccccccccccccccccccccccc" />
  </g>
</svg>
