<?xml version="1.0" encoding="UTF-8" standalone="no"?>
<!-- Created with Inkscape (http://www.inkscape.org/) -->

<svg
   xmlns:dc="http://purl.org/dc/elements/1.1/"
   xmlns:cc="http://creativecommons.org/ns#"
   xmlns:rdf="http://www.w3.org/1999/02/22-rdf-syntax-ns#"
   xmlns:svg="http://www.w3.org/2000/svg"
   xmlns="http://www.w3.org/2000/svg"
   xmlns:sodipodi="http://sodipodi.sourceforge.net/DTD/sodipodi-0.dtd"
   xmlns:inkscape="http://www.inkscape.org/namespaces/inkscape"
   width="744.09448819"
   height="1052.3622047"
   id="svg4386"
   version="1.1"
   inkscape:version="0.48.5 r10040"
   sodipodi:docname="sabugosa_rabiscoscopio.svg">
  <defs
     id="defs4388" />
  <sodipodi:namedview
     id="base"
     pagecolor="#ffffff"
     bordercolor="#666666"
     borderopacity="1.0"
     inkscape:pageopacity="0.0"
     inkscape:pageshadow="2"
     inkscape:zoom="2.8"
     inkscape:cx="493.67799"
     inkscape:cy="732.46518"
     inkscape:document-units="px"
     inkscape:current-layer="layer1"
     showgrid="false"
     inkscape:window-width="1920"
     inkscape:window-height="1017"
     inkscape:window-x="1911"
     inkscape:window-y="-9"
     inkscape:window-maximized="1" />
  <metadata
     id="metadata4391">
    <rdf:RDF>
      <cc:Work
         rdf:about="">
        <dc:format>image/svg+xml</dc:format>
        <dc:type
           rdf:resource="http://purl.org/dc/dcmitype/StillImage" />
        <dc:title></dc:title>
      </cc:Work>
    </rdf:RDF>
  </metadata>
  <g
     inkscape:label="Layer 1"
     inkscape:groupmode="layer"
     id="layer1">
    <g
       inkscape:export-ydpi="92.870003"
       inkscape:export-xdpi="92.870003"
       inkscape:export-filename="c:\Users\aporto\Desktop\carimbo.png"
       style="stroke:#398c00;stroke-width:0.17945236;stroke-miterlimit:4;stroke-opacity:0.99578091000000002;stroke-dasharray:none;display:inline"
       inkscape:label="Gear20"
       transform="matrix(2.2290038,0,0,2.2290038,385.71429,438.07647)"
       id="g16827-9-5-2">
      <path
         id="path16829-4-5-4"
         style="fill:none;stroke:#398c00;stroke-width:0.17945236;stroke-miterlimit:4;stroke-opacity:0.99578091;stroke-dasharray:none"
         d="M 1.4226158,65.91077 0.67330804,59.028206 12.716244,55.116683 l 0.448984,-0.425657 3.728776,-4.360177 3.3452,-6.464423 2.255899,-6.989884 1.65804,-7.028744 1.551627,-6.581003 1.086913,-3.76024 2.689863,2.818034 -0.880964,4.346112 -4.065718,16.31895 3.387364,3.731071 3.504348,3.579212 3.66857,3.372921 3.880026,3.112196 5.053908,1.02866 4.535577,-0.551989 9.449289,9.253012 4.511474,2.733125 5.10242,2.516106 5.101693,1.881544 4.509288,0.829435 -0.123839,1.053888 L 70.662,82.435 l 6.659,7.768 1.028,1.532 4.346,12.052 -9.542,6.933 -10.119,-7.858 -1.14,-1.451 -5.33,-8.734 -14.834,7.559 3.932,9.445 0.505,1.775 0.409,12.805 -11.218,3.645 -7.195,-10.6 -0.635,-1.732 -2.371,-9.953 -16.444,2.604 0.821,10.199 -0.069,1.844 -3.567,12.304 -11.796,0 -3.567,-12.304 -0.069,-1.844 0.821,-10.199 -16.444,-2.604 -2.371,9.953 -0.635,1.732 -7.195,10.6 -11.218,-3.645 0.409,-12.805 0.505,-1.775 3.932,-9.445 -14.834,-7.559 -5.33,8.734 -1.14,1.451 -10.119,7.858 -9.542,-6.933 4.346,-12.052 1.028,-1.532 6.659,-7.768 -11.773,-11.773 -7.768,6.659 -1.532,1.028 -12.052,4.346 -6.933,-9.542 7.858,-10.119 1.451,-1.14 8.734,-5.33 -7.559,-14.834 -9.445,3.932 -1.775,0.505 -12.805,0.409 -3.645,-11.218 10.6,-7.195 1.732,-0.635 9.953,-2.371 -2.604,-16.444 -10.199,0.821 -1.844,-0.069 -12.304,-3.567 0,-11.796 12.304,-3.567 1.844,-0.069 10.199,0.821 2.604,-16.444 -9.953,-2.371 -1.732,-0.635 -10.6,-7.195 3.645,-11.218 12.805,0.409 1.775,0.505 9.445,3.932 7.559,-14.834 -8.734,-5.33 -1.451,-1.14 -7.858,-10.119 6.933,-9.542 12.052,4.346 1.532,1.028 7.768,6.659 11.773,-11.773 -6.659,-7.768 -1.028,-1.532 -4.346,-12.052 9.542,-6.933 10.119,7.858 1.14,1.451 5.33,8.734 14.834,-7.559 -3.932,-9.445 -0.505,-1.775 -0.409,-12.805 11.218,-3.645 7.195,10.6 0.635,1.732 2.371,9.953 16.444,-2.604 -0.821,-10.199 0.069,-1.844 3.567,-12.304 11.796,0 3.567,12.304 0.069,1.844 -0.821,10.199 16.444,2.604 2.371,-9.953 0.635,-1.732 7.195,-10.6 11.218,3.645 -0.409,12.805 -0.505,1.775 -3.932,9.445 14.834,7.559 5.33,-8.734 1.14,-1.451 10.119,-7.858 9.542,6.933 -4.346,12.052 -1.028,1.532 -6.659,7.768 11.773,11.773 7.768,-6.659 1.532,-1.028 12.052,-4.346 6.933,9.542 -7.858,10.119 -1.451,1.14 -8.734,5.33 7.559,14.834 9.445,-3.932 1.775,-0.505 12.805,-0.409 3.645,11.218 -10.6,7.195 -1.732,0.635 -9.953,2.371 2.604,16.444 10.199,-0.821 1.844,0.069 12.304,3.567 0,11.796 -12.304,3.567 -1.844,0.069 -10.199,-0.821 -2.604,16.444 9.953,2.371 1.732,0.635 10.6,7.195 -3.645,11.218 -12.805,-0.409 -1.775,-0.505 -9.445,-3.932 -7.559,14.834 8.734,5.33 1.451,1.14 7.858,10.119 -6.933,9.542 -12.052,-4.346 -1.532,-1.028 -7.768,-6.659 -2.374311,2.147718 -5.880872,-0.940591 0.826025,-2.788807 -3.928758,-0.281871 -3.752952,-1.067943 -3.480114,-2.015812 -3.110247,-3.12548 -8.986638,-9.210976 0.651183,-4.489371 -0.973637,-4.819721 -10.779131,-12.651608 -12.750152,-12.038656 -0.763824,-0.891995 1.174089,-5.831531 0.942446,-5.6355676 3.532045,-5.5879381 3.61876,-2.8224623 5.324124,-2.86618 -5.46986,1.0877681 -5.116706,1.2538223 -4.852996,1.92661966 -4.67873,3.10616054 -0.168237,-3.49090927 -0.546769,-3.04227833 0,-4.5003288 -1.387952,-4.5844472 0,-4.43023 -0.799124,-3.406791 0.04206,-3.322673 -1.772533,-5.785587 2.007452,-1.878642 2.092353,4.720089 -0.05608,3.743264 0.911281,3.841402 0,4.96298 1.149617,3.070317 24.394305,-24.688719 4.570428,1.738444 3.097716,-0.54867 5.370386,-1.896845 4.341986,-2.812544 3.399579,-3.547872 2.543164,-4.102828 1.772741,-4.477414 1.088311,-4.671627 0.489873,-4.685471 0.04739,-2.29156 -13.30471,13.30471 -12.701863,-12.701862 12.491567,-12.491567 -4.545476,0.198226 -4.544002,0.751386 -4.206046,1.398513 -3.788683,2.014262 -3.291914,2.598635 -2.715738,3.15163 -2.060156,3.673248 -1.325165,4.16349 -0.51077,4.622353 1.500109,4.724645 -18.476131,17.598942 -0.660777,-3.256774 -1.864622,-4.374151 0,-2.607668 -2.48149,-4.89288 -0.294414,-2.313254 -1.8926615,-4.247974 -3.0282587,-6.827601 -1.0094195,-2.944141 -1.1776561,-1.682365 -2.4955095,-1.387952 -1.97542811,-1.436238 -5.34286359,1.352117 -5.649946,9.224973 -3.112376,8.033298 -1.724425,6.617306 -2.523549,8.201533 -2.271194,8.678205 -1.56907,8.797549 -3.015377,-2.950972 0.771084,-6.954136 -20.146332,-20.665061 0.883242,-2.187076 -9.729683,-9.911939 -2.846002,2.004819 -4.542388,-3.92552 -12.982257,-10.542827 -0.01402,0.02804 10.795182,12.856079 4.121796,4.388171 -2.145016,3.280614 9.673604,10.052136 2.43943,-1.177656 24.287842,24.567098 2.109006,2.044602 -0.824886,9.1946557 0.168237,9.224973 -1.275795,2.6076672 -3.250409,-3.6992064 -5.408407,-3.74541814 -4.135087,0.25392527 -3.081642,3.20768917 -1.214488,2.3847625 2.706555,-0.7538012 2.314863,0.8698619 1.953427,2.0855463 1.622248,2.8932517 1.321324,3.292979 1.050656,3.284726 0.810246,2.868496 0.60009,2.044287 2.781896,9.303705 -3.703039,1.498917 -2.738003,-8.068801 -0.96736,-3.364732 -14.286091,14.215992 -4.570427,-1.542169 -5.918038,1.370756 -4.848614,2.375654 -3.864524,3.20051 -2.965771,3.845323 -2.152351,4.310093 -1.424268,4.594821 -0.781519,4.699506 -0.224106,4.624149 13.31873,-13.304688 12.701863,12.701818 -12.505587,12.505587 4.652951,-0.204501 4.713768,-0.848402 4.561649,-1.544457 4.19659,-2.292661 3.618594,-3.093018 2.827659,-3.945525 1.823786,-4.850183 0.606976,-5.806993 -1.079518,-3.897481 7.556627,-7.654765 -2.13972,-7.006166 3.703039,-1.838805 1.521982,5.039985 1.373275,4.541178 1.444128,4.06269 1.734541,3.604523 2.244516,3.166675 2.97405,2.749148 3.923145,2.351941 5.0918008,1.975054 2.5235489,0.168235 -0.6085411,6.128183 5.2828725,0.52001"
         inkscape:connector-curvature="0"
         sodipodi:nodetypes="cccccccccccccccccccccccccccccccccccccccccccccccccccccccccccccccccccccccccccccccccccccccccccccccccccccccccccccccccccccccccccccccccccccccccccccccccccccccccccccccccccccccccccccccccccccccccccccccccccccccccccccccccccccccccccccccccccccccccccccccccccccccccccccccccccccccccccccccccccccccccccccccccccccccccccccccccccccccccccccccccccccccccccccccc" />
    </g>
  </g>
</svg>
