<?xml version="1.0" encoding="UTF-8" standalone="no"?>
<!-- Created with Inkscape (http://www.inkscape.org/) -->

<svg
   xmlns:dc="http://purl.org/dc/elements/1.1/"
   xmlns:cc="http://creativecommons.org/ns#"
   xmlns:rdf="http://www.w3.org/1999/02/22-rdf-syntax-ns#"
   xmlns:svg="http://www.w3.org/2000/svg"
   xmlns="http://www.w3.org/2000/svg"
   xmlns:sodipodi="http://sodipodi.sourceforge.net/DTD/sodipodi-0.dtd"
   xmlns:inkscape="http://www.inkscape.org/namespaces/inkscape"
   width="512"
   height="512"
   id="svg3048"
   version="1.1"
   inkscape:version="0.48.5 r10040"
   sodipodi:docname="thc__rabiscoscopio.svg">
  <defs
     id="defs3050" />
  <sodipodi:namedview
     id="base"
     pagecolor="#ffffff"
     bordercolor="#666666"
     borderopacity="1.0"
     inkscape:pageopacity="0.0"
     inkscape:pageshadow="2"
     inkscape:zoom="1.4"
     inkscape:cx="316.91264"
     inkscape:cy="256.55401"
     inkscape:document-units="px"
     inkscape:current-layer="layer1"
     showgrid="false"
     inkscape:window-width="1920"
     inkscape:window-height="1017"
     inkscape:window-x="1911"
     inkscape:window-y="-9"
     inkscape:window-maximized="1" />
  <metadata
     id="metadata3053">
    <rdf:RDF>
      <cc:Work
         rdf:about="">
        <dc:format>image/svg+xml</dc:format>
        <dc:type
           rdf:resource="http://purl.org/dc/dcmitype/StillImage" />
        <dc:title></dc:title>
      </cc:Work>
    </rdf:RDF>
  </metadata>
  <g
     inkscape:label="Camada 1"
     inkscape:groupmode="layer"
     id="layer1"
     transform="translate(0,-540.36218)">
    <path
       inkscape:export-ydpi="150.00482"
       inkscape:export-xdpi="150.00482"
       inkscape:export-filename="/home/lucasmac/hny_thc.png"
       inkscape:connector-curvature="0"
       id="path3065"
       d="m 354.7505,841.66567 1.45073,-4.40399 1.25117,-4.49081 1.0477,-4.57366 0.84034,-4.65251 18.49621,-0.38241 18.49621,-0.38241 18.49622,-0.3824 18.49621,-0.38241 0.51665,-0.0145 0.51665,-0.0146 0.51665,-0.0145 0.51665,-0.0145 0.38889,-0.32875 0.38889,-0.32876 0.3889,-0.32875 0.38889,-0.32875 9.61093,-8.24816 9.61094,-8.24816 9.61093,-8.24815 9.61094,-8.24816 0.45627,-0.38917 0.45628,-0.38917 0.45627,-0.38917 0.45628,-0.38917 0.0558,-0.57716 0.0558,-0.57716 0.0558,-0.57716 0.0558,-0.57716 0.40268,-4.83214 0.40269,-4.83213 0.40269,-4.83214 0.40268,-4.83213 7.84845,-3.199 6.2625,-5.60423 4.14634,-7.46412 1.49994,-8.77867 0,-0.0342 0,-0.0342 0,-0.0342 0,-0.0342 -1.95997,-9.91943 -5.33806,-8.08771 -7.90335,-5.44636 -9.65584,-1.99537 -9.67745,2.00952 -7.90165,5.48114 -5.3269,8.13157 -1.95318,9.96086 1.38213,8.43432 3.83369,7.25467 5.81621,5.59117 7.32969,3.4438 -0.34233,4.08046 -0.34234,4.08046 -0.34234,4.08047 -0.34233,4.08046 -8.75803,7.50977 -8.75804,7.50978 -8.75803,7.50977 -8.75803,7.50978 -17.63701,0.36247 -17.63701,0.36248 -17.63701,0.36247 -17.63701,0.36248 0.0212,-1.0708 0.0467,-1.07155 0.0467,-1.0742 0.0212,-1.07876 -0.13007,-5.2172 -0.38682,-5.15012 -0.63849,-5.0737 -0.88505,-4.98792 12.25476,0 12.25476,0 12.25476,0 12.25476,0 1.24155,0 1.24155,0 1.24156,0 1.24155,0 0.17942,-1.22815 0.17942,-1.22814 0.17942,-1.22815 0.17942,-1.22814 0.73847,-4.79177 0.73848,-4.79177 0.73847,-4.79176 0.73848,-4.79177 9.37487,-2.24238 7.62466,-5.51934 5.12465,-8.02761 1.87484,-9.76719 0,-0.0342 0,-0.0342 0,-0.0342 0,-0.0342 -1.96013,-9.92328 -5.33839,-8.09705 -7.90369,-5.45587 -9.65599,-1.99972 -9.67647,2.01379 -7.90141,5.49049 -5.32702,8.14087 -1.9533,9.9649 1.05425,7.38745 2.95612,6.53679 4.54805,5.37313 5.83006,3.89649 -0.57071,3.71813 -0.5707,3.71813 -0.57071,3.71814 -0.5707,3.71813 -11.78467,0 -11.78466,0 -11.78467,0 -11.78466,0 -2.19463,-5.98288 -2.5511,-5.79823 -2.89603,-5.59884 -3.22943,-5.38469 10.84497,-11.5634 10.84497,-11.5634 10.84497,-11.5634 10.84497,-11.5634 0.79885,-0.85231 0.79885,-0.85231 0.79886,-0.8523 0.79885,-0.85231 -0.65774,-0.94631 -0.65774,-0.9463 -0.65774,-0.94631 -0.65774,-0.9463 -3.99329,-5.80523 -3.99328,-5.80523 -3.99329,-5.80522 -3.99328,-5.80523 9.89216,-3.65086 9.89216,-3.65085 9.89216,-3.65086 9.89216,-3.65085 3.86875,4.12205 4.68026,3.1481 5.33196,2.00955 5.82382,0.70643 9.67605,-2.00958 7.90145,-5.48122 5.32725,-8.13159 1.95344,-9.96069 0,-0.0342 0,-0.0342 0,-0.0342 0,-0.0342 -1.96013,-9.92349 -5.33839,-8.09703 -7.90368,-5.45576 -9.65599,-1.99965 -9.67643,2.01379 -7.90141,5.49048 -5.32704,8.14084 -1.95332,9.96485 0.032,1.2676 0.0929,1.25042 0.14925,1.23299 0.20106,1.21529 -11.46294,4.24818 -11.46294,4.24819 -11.46293,4.24818 -11.46294,4.24819 -1.73833,0.64424 -1.73833,0.64425 -1.73833,0.64424 -1.73833,0.64425 1.04712,1.52349 1.04712,1.52348 1.04712,1.52349 1.04712,1.52349 4.38239,6.37562 4.3824,6.37563 4.38239,6.37562 4.3824,6.37563 -9.6844,10.30167 -9.6844,10.30168 -9.68439,10.30167 -9.6844,10.30168 -4.9563,-5.58395 -5.35516,-5.19991 -5.72955,-4.7944 -6.07949,-4.36744 6.38119,-11.37654 6.35971,-12.2449 6.22442,-12.67535 5.9753,-12.6679 6.2195,-13.63238 5.41643,-12.24158 4.39691,-10.19012 3.16091,-7.47803 1.08546,0.17498 1.10101,0.12589 1.115,0.0761 1.12743,0.0255 9.67606,-2.00958 7.90145,-5.48122 5.32725,-8.13159 1.95344,-9.96069 0,-0.0342 0,-0.0342 0,-0.0342 0,-0.0342 -2.01738,-9.92327 -5.33201,-8.09691 -7.87186,-5.45571 -9.63695,-1.99965 -9.67615,2.01379 -7.90177,5.49048 -5.32757,8.14083 -1.95359,9.96485 0.70259,6.05817 1.99651,5.53603 3.12352,4.84614 4.08363,3.9885 -3.12026,7.37037 -4.39091,10.15277 -5.42697,12.24322 -6.22846,13.64173 -5.9195,12.48338 -6.19806,12.49939 -6.27334,11.99416 -6.14532,10.96766 -8.02608,-3.63911 -8.38613,-2.93982 -8.71014,-2.2073 -8.99816,-1.44157 1.13416,-27.48229 1.13415,-27.48229 1.13416,-27.48229 1.13416,-27.48229 8.49073,-2.84425 6.83126,-5.59263 4.55273,-7.70959 1.65515,-9.19514 0,-0.0121 0,-0.0121 0,-0.0121 0,-0.0121 0,-0.0272 0,-0.0272 0,-0.0272 0,-0.0272 -2.01725,-9.92352 -5.33181,-8.09694 -7.87182,-5.45563 -9.63731,-1.9996 -0.0102,0.0157 -0.0102,0.0157 -0.0102,0.0157 -0.0102,0.0157 -9.67615,2.01374 -7.90177,5.49041 -5.32757,8.14087 -1.95359,9.96512 1.24103,8.0102 3.45992,6.96609 5.28406,5.51802 6.71343,3.66602 -1.14773,27.60994 -1.14773,27.60994 -1.14773,27.60993 -1.14773,27.60994 -0.0221,0 -0.053,0 -0.0639,0 -0.0549,0 -8.09679,0.31805 -7.91896,0.93719 -7.71604,1.53093 -7.48803,2.09925 -0.26541,-6.27136 -0.28668,-6.66371 -0.30738,-6.95435 -0.32754,-7.14328 -0.70308,-15.11065 -0.6107,-12.98793 -0.4307,-9.09265 -0.16304,-3.42479 -0.0679,-1.4228 -0.0679,-1.4228 -0.0679,-1.4228 -0.0679,-1.4228 -1.42944,0.0402 -1.42944,0.0403 -1.42945,0.0402 -1.42944,0.0403 -12.51662,0.44289 -12.51662,0.4429 -12.51663,0.44289 -12.51662,0.4429 -1.89226,-2.51663 -1.89227,-2.51663 -1.89226,-2.51664 -1.89226,-2.51663 2.60905,-3.63703 1.95873,-4.08738 1.23158,-4.45995 0.4276,-4.75476 0,-0.0342 0,-0.0342 0,-0.0342 0,-0.0342 -2.0173,-9.92338 -5.3318,-8.09708 -7.87181,-5.45585 -9.63731,-1.99971 -9.67604,2.0138 -7.90145,5.49052 -5.32725,8.14086 -1.95344,9.96486 1.95344,9.96074 5.32725,8.13159 7.90145,5.4812 9.67604,2.00957 2.42502,-0.12317 2.36021,-0.35963 2.28293,-0.58125 2.19318,-0.78802 2.3626,3.15421 2.36259,3.15421 2.3626,3.1542 2.3626,3.15421 0.45627,0.604 0.45628,0.604 0.45627,0.604 0.45628,0.604 0.75159,-0.0272 0.75158,-0.0272 0.75159,-0.0272 0.75159,-0.0272 11.85207,-0.40931 11.85207,-0.40932 11.85208,-0.40931 11.85207,-0.40932 0.23425,4.83137 0.35964,7.6131 0.47218,10.12204 0.57192,12.3582 0.37173,8.22872 0.35276,8.06999 0.32459,7.65197 0.28725,6.97468 -10.73511,5.79276 -9.89696,7.00201 -8.96324,8.11457 -7.93398,9.13044 -16.60347,-8.5099 -16.60347,-8.5099 -16.60347,-8.5099 -16.60347,-8.5099 0,-11.01303 0,-11.01303 0,-11.01303 0,-11.01303 0,-0.84569 0,-0.84568 0,-0.84569 0,-0.84569 -0.73169,-0.40939 -0.7317,-0.40939 -0.73169,-0.40939 -0.73169,-0.40939 -5.40891,-3.09382 -5.408902,-3.09381 -5.408906,-3.09382 -5.408906,-3.09382 0.845462,-2.35715 0.62326,-2.4577 0.385423,-2.54691 0.131949,-2.62477 0,-0.0342 0,-0.0342 0,-0.0342 0,-0.0342 -2.01726,-9.91927 -5.331793,-8.08773 -7.871812,-5.44645 -9.637315,-1.99543 -9.681106,2.00951 -7.910693,5.4811 -5.336129,8.13155 -1.95741,9.96084 1.95741,9.96091 5.336129,8.13171 7.910693,5.48126 9.681106,2.00959 4.509823,-0.41865 4.238618,-1.20783 3.897683,-1.92479 3.487018,-2.56955 4.932747,2.83217 4.932747,2.83218 4.932747,2.83217 4.932747,2.83217 0,11.04656 0,11.04656 0,11.04655 0,11.04656 0,0.88591 0,0.88592 0,0.88591 0,0.88591 0.79206,0.40939 0.79206,0.40939 0.79207,0.40939 0.79206,0.40939 17.05975,8.73804 17.05976,8.73804 17.05975,8.73804 17.05976,8.73804 -3.87942,7.10982 -3.31193,7.44521 -2.71625,7.75141 -2.09239,8.02843 -24.543,-7.47643 -24.543,-7.47644 -24.542997,-7.47643 -24.542999,-7.47644 0.11607,-0.93847 0.08516,-0.94772 0.05243,-0.95758 0.01788,-0.96803 0,-0.0342 0,-0.0342 0,-0.0342 0,-0.0342 -1.959972,-9.9236 -5.338053,-8.09692 -7.903345,-5.45556 -9.655843,-1.99955 -9.67645,2.01368 -7.901404,5.49025 -5.327022,8.14068 -1.953304,9.96495 1.953304,9.96087 5.327022,8.13161 7.901404,5.48117 9.67645,2.00954 6.121767,-0.78233 5.564359,-2.21883 4.821574,-3.46307 3.89341,-4.51506 25.133599,7.66411 25.133596,7.66411 25.1336,7.66412 25.1336,7.66411 -0.21334,2.51103 -0.14789,2.52918 -0.0861,2.54597 -0.0279,2.56143 0.0226,1.60104 0.0562,1.59272 0.0726,1.58642 0.0717,1.58211 -25.58284,-2.24825 -25.58285,-2.24825 -25.582842,-2.24825 -25.582844,-2.24825 -2.134228,-0.19468 -2.134228,-0.19468 -2.134228,-0.19468 -2.134228,-0.19468 0.637382,2.04699 0.637383,2.047 0.637382,2.04699 0.637383,2.047 1.630674,5.32197 1.630673,5.32196 1.630674,5.32197 1.630674,5.32197 -4.425373,4.00965 -3.395113,4.9771 -2.175746,5.75216 -0.767272,6.33484 1.953304,9.96462 5.327022,8.14071 7.901403,5.49044 9.67645,2.01378 9.676042,-2.01378 7.901449,-5.49044 5.327249,-8.14071 1.95344,-9.96462 0,-0.0342 0,-0.0342 0,-0.0342 0,-0.0342 -1.959985,-9.91934 -5.338157,-8.08779 -7.903631,-5.4465 -9.656407,-1.99544 -0.827426,0.0174 -0.822881,0.0491 -0.8167,0.0762 -0.808881,0.0987 -0.939468,-3.03335 -0.939467,-3.03335 -0.939468,-3.03335 -0.939467,-3.03335 24.026121,2.11398 24.026125,2.11398 24.02612,2.11398 24.02612,2.11398 2.17431,9.44785 3.03446,9.07801 3.84633,8.66715 4.60993,8.21524 -26.54995,11.20771 -26.54994,11.20771 -26.549946,11.20771 -26.549945,11.20771 -3.896123,-4.47245 -4.814376,-3.429 -5.546069,-2.19623 -6.091202,-0.77415 -9.676454,2.00956 -7.901404,5.48114 -5.327019,8.13145 -1.953303,9.96045 1.953303,9.96523 5.327019,8.14111 7.901404,5.49064 9.676454,2.01385 9.676193,-2.01385 7.901782,-5.49064 5.327581,-8.14111 1.953591,-9.96523 0,-0.0272 0,-0.0272 0,-0.0272 0,-0.0272 -0.02379,-0.97381 -0.0647,-0.96582 -0.09561,-0.95569 -0.116524,-0.94343 27.206975,-11.48296 27.206974,-11.48296 27.20698,-11.48295 27.20697,-11.48296 3.40714,4.03272 3.61145,3.84472 3.80691,3.65082 3.99354,3.45105 -12.32192,23.81136 -12.32193,23.81136 -12.32192,23.81136 -12.32192,23.81136 -1.5488,-0.36608 -1.58126,-0.25979 -1.61344,-0.15488 -1.64536,-0.0513 -9.68085,2.00976 -7.91107,5.48158 -5.33669,8.13189 -1.9577,9.96066 1.9577,9.965 5.33669,8.1406 7.91107,5.4902 9.68085,2.0136 9.67605,-2.0135 7.90145,-5.4901 5.32725,-8.1405 1.95344,-9.9653 0,-0.034 0,-0.034 0,-0.034 0,-0.034 -0.58923,-5.4991 -1.67786,-5.07725 -2.63176,-4.53363 -3.45095,-3.86833 12.14763,-23.5028 12.14763,-23.50281 12.14763,-23.50281 12.14763,-23.5028 7.70112,4.4795 8.11879,3.79988 8.49699,3.08289 8.83573,2.3285 -0.5501,6.87246 -0.55009,6.87247 -0.5501,6.87246 -0.5501,6.87246 -8.34649,2.93332 -6.702,5.60796 -4.45964,7.66571 -1.6194,9.1066 1.95332,9.96101 5.32704,8.13184 7.90141,5.48138 9.67643,2.00963 9.67647,-2.00963 7.9014,-5.48138 5.32702,-8.13184 1.9533,-9.96101 0,-0.0342 0,-0.0342 0,-0.0342 0,-0.0342 -1.27962,-8.06817 -3.55543,-6.99934 -5.40612,-5.51234 -6.83167,-3.60716 0.53701,-6.67087 0.53701,-6.67087 0.53701,-6.67087 0.53701,-6.67087 2.49762,0.21676 2.51563,0.16012 2.53234,0.0992 2.54777,0.034 3.67202,-0.0687 3.63453,-0.20171 3.59852,-0.32808 3.56397,-0.44778 2.94641,20.62369 2.94641,20.6237 2.94641,20.62369 2.94641,20.6237 -6.52468,3.72978 -5.13064,5.50191 -3.35686,6.88587 -1.20334,7.8815 1.9533,9.9605 5.32702,8.1315 7.90141,5.4812 9.67647,2.0096 9.67698,-2.0096 7.90167,-5.4812 5.32711,-8.1315 1.95332,-9.9605 0,-0.034 0,-0.034 0,-0.034 0,-0.034 -1.70484,-9.2856 -4.67807,-7.75264 -6.99663,-5.56224 -8.6605,-2.71441 -2.97283,-20.83159 -2.97282,-20.83159 -2.97283,-20.83158 -2.97283,-20.83159 3.95093,-1.12195 3.88302,-1.2755 3.81119,-1.42572 3.73543,-1.57265 5.22805,8.26154 5.22805,8.26154 5.22805,8.26155 5.22805,8.26154 -2.63239,3.64853 -1.97609,4.1069 -1.24241,4.48403 -0.43133,4.77995 1.95361,9.96059 5.32769,8.13157 7.90207,5.48124 9.67678,2.00959 9.67647,-2.00959 7.90141,-5.48124 5.32702,-8.13157 1.9533,-9.96059 0,-0.0342 0,-0.0342 0,-0.0342 0,-0.0342 -2.01739,-9.92355 -5.33203,-8.09688 -7.87187,-5.45555 -9.63691,-1.99955 -2.39608,0.11838 -2.33144,0.34715 -2.25636,0.56395 -2.17081,0.76877 -4.9999,-7.89904 -4.9999,-7.89905 -4.9999,-7.89904 -4.9999,-7.89904 5.53734,-3.52353 5.28389,-3.86225 5.01403,-4.1893 4.72782,-4.50472 15.22107,15.09337 15.22107,15.09337 15.22106,15.09338 15.22107,15.09337 -5.26829,7.7046 -5.26828,7.7046 -5.26828,7.7046 -5.26829,7.7046 -0.698,1.01326 -0.698,1.01327 -0.698,1.01326 -0.698,1.01327 0.89268,0.85238 0.89268,0.85239 0.89267,0.85238 0.89268,0.85239 7.70437,7.28157 7.70437,7.28157 7.70436,7.28157 7.70437,7.28157 -1.82487,3.2371 -1.35773,3.5183 -0.84678,3.7514 -0.292,3.9365 1.95344,9.9606 5.32725,8.1314 7.90145,5.4812 9.67606,2.0095 9.67605,-2.0095 7.90145,-5.4812 5.32725,-8.1314 1.95344,-9.9606 0,-0.034 0,-0.034 0,-0.034 0,-0.034 -2.01739,-9.9239 -5.33203,-8.0973 -7.87187,-5.45584 -9.6369,-1.99968 -3.24449,0.21707 -3.11514,0.63247 -2.96223,1.01975 -2.78576,1.37891 -6.93266,-6.55016 -6.93267,-6.55016 -6.93266,-6.55015 -6.93267,-6.55016 5.26853,-7.68436 5.26853,-7.68436 5.26853,-7.68435 5.26853,-7.68436 0.67764,-0.99322 0.67763,-0.99322 0.67764,-0.99321 0.67763,-0.99322 -0.86577,-0.85221 -0.86577,-0.85222 -0.86577,-0.85221 -0.86577,-0.85221 -16.19423,-16.06659 -16.19424,-16.06659 -16.19423,-16.06658 -16.19424,-16.06659 3.03894,-4.11353 2.82736,-4.27163 2.61225,-4.42128 2.39361,-4.56247 22.49607,5.32206 22.49607,5.32206 22.49606,5.32207 22.49607,5.32206 2.54241,9.11145 5.41989,7.36311 7.62661,4.92425 9.16255,1.79486 9.67647,-2.01376 7.90141,-5.49044 5.32702,-8.14082 1.9533,-9.96493 0,-0.0342 0,-0.0342 0,-0.0342 0,-0.0342 -1.95999,-9.9189 -5.33817,-8.0877 -7.90364,-5.44656 -9.6564,-1.99551 -7.61088,1.21919 -6.65861,3.40554 -5.33596,5.21389 -3.64289,6.64421 -21.73066,-5.14074 -21.73066,-5.14074 -21.73066,-5.14074 -21.73066,-5.14074"
       style="fill:none;stroke:#000000;stroke-opacity:1"
       sodipodi:nodetypes="ccccccccccccccccccccccccccccccccccccccccccccccccccccccccccccccccccccccccccccccccccccccccccccccccccccccccccccccccccccccccccccccccccccccccccccccccccccccccccccccccccccccccccccccccccccccccccccccccccccccccccccccccccccccccccccccccccccccccccccccccccccccccccccccccccccccccccccccccccccccccccccccccccccccccccccccccccccccccccccccccccccccccccccccccccccccccccccccccccccccccccccccccccccccccccccccccccccccccccccccccccccccccccccccccccccccccccccccccccccccccccccccccccccccccccccccccccccccccccccccccccccccccccccccccccccccccccccccccccccccccccccccccccccccccccccccccccccccccccccccccccccccccccccccccccccccccccccccccccccccccccccccccccccccccccccccccccccccccccccccccccccccccccccccccccccccccccccccccccccccccccccccccccccccccccccccccccccccccccccccccccccccccccccccccccccccccccccccccccccccccccccccccccccccccccccccccc" />
  </g>
</svg>
