<?xml version="1.0" encoding="UTF-8" standalone="no"?>
<!-- Generator: Adobe Illustrator 15.0.0, SVG Export Plug-In . SVG Version: 6.00 Build 0)  -->

<svg
   xmlns:dc="http://purl.org/dc/elements/1.1/"
   xmlns:cc="http://creativecommons.org/ns#"
   xmlns:rdf="http://www.w3.org/1999/02/22-rdf-syntax-ns#"
   xmlns:svg="http://www.w3.org/2000/svg"
   xmlns="http://www.w3.org/2000/svg"
   xmlns:sodipodi="http://sodipodi.sourceforge.net/DTD/sodipodi-0.dtd"
   xmlns:inkscape="http://www.inkscape.org/namespaces/inkscape"
   version="1.1"
   id="Layer_1"
   x="0px"
   y="0px"
   width="595.275px"
   height="841.891px"
   viewBox="0 0 595.275 841.891"
   enable-background="new 0 0 595.275 841.891"
   xml:space="preserve"
   inkscape:version="0.48.2 r9819"
   sodipodi:docname="sombrinha.svg"><metadata
   id="metadata3863"><rdf:RDF><cc:Work
       rdf:about=""><dc:format>image/svg+xml</dc:format><dc:type
         rdf:resource="http://purl.org/dc/dcmitype/StillImage" /><dc:title /></cc:Work></rdf:RDF></metadata><defs
   id="defs3861">
	
	
	
	
	
	
	
	
	
	
	
	
	
	
	
	
	
	
	
</defs><sodipodi:namedview
   pagecolor="#ffffff"
   bordercolor="#666666"
   borderopacity="1"
   objecttolerance="10"
   gridtolerance="10"
   guidetolerance="10"
   inkscape:pageopacity="0"
   inkscape:pageshadow="2"
   inkscape:window-width="1366"
   inkscape:window-height="706"
   id="namedview3859"
   showgrid="false"
   inkscape:zoom="1.1212853"
   inkscape:cx="100.88356"
   inkscape:cy="420.9455"
   inkscape:window-x="-8"
   inkscape:window-y="-8"
   inkscape:window-maximized="1"
   inkscape:current-layer="Layer_1" />
<g
   id="Logo_Garoa_P_x26_B"
   display="none">
	<path
   display="inline"
   fill="#1D1D1B"
   d="M471.96,628.1c0,14.09-11.423,25.512-25.513,25.512h-317.71   c-14.09,0-25.512-11.422-25.512-25.512V160.835c0-14.09,11.422-25.512,25.512-25.512h317.71c14.09,0,25.513,11.422,25.513,25.512   V628.1z"
   id="path2987" />
	<g
   display="inline"
   id="g2989">
		<path
   fill="#FFFFFF"
   d="M128.313,166.771c1.987,0,3.602-1.612,3.602-3.603c0-1.997-1.612-3.606-3.602-3.606    c-1.99,0-3.606,1.61-3.606,3.606C124.707,165.159,126.323,166.771,128.313,166.771"
   id="path2991" />
		<path
   fill="#FFFFFF"
   d="M298.214,166.771c1.991,0,3.604-1.612,3.604-3.603c0-1.997-1.612-3.606-3.604-3.606    c-1.991,0-3.608,1.61-3.608,3.606C294.604,165.159,296.223,166.771,298.214,166.771"
   id="path2993" />
		<path
   fill="#FFFFFF"
   d="M319.453,166.771c1.989,0,3.604-1.612,3.604-3.603c0-1.997-1.614-3.606-3.604-3.606    c-1.998,0-3.607,1.61-3.607,3.606C315.845,165.159,317.455,166.771,319.453,166.771"
   id="path2995" />
		<path
   fill="#FFFFFF"
   d="M340.687,166.771c1.99,0,3.606-1.612,3.606-3.603c0-1.997-1.616-3.606-3.606-3.606    s-3.608,1.61-3.608,3.606C337.078,165.159,338.696,166.771,340.687,166.771"
   id="path2997" />
		<path
   fill="#FFFFFF"
   d="M361.925,166.771c1.99,0,3.609-1.612,3.609-3.603c0-1.997-1.619-3.606-3.609-3.606    s-3.607,1.61-3.607,3.606C358.316,165.159,359.934,166.771,361.925,166.771"
   id="path2999" />
		<path
   fill="#FFFFFF"
   d="M383.161,166.771c1.989,0,3.612-1.612,3.612-3.603c0-1.997-1.623-3.606-3.612-3.606    c-1.99,0-3.604,1.61-3.604,3.606C379.556,165.159,381.171,166.771,383.161,166.771"
   id="path3001" />
		<path
   fill="#FFFFFF"
   d="M404.397,166.771c1.991,0,3.605-1.612,3.605-3.603c0-1.997-1.614-3.606-3.605-3.606    c-1.989,0-3.604,1.61-3.604,3.606C400.794,165.159,402.408,166.771,404.397,166.771"
   id="path3003" />
		<path
   fill="#FFFFFF"
   d="M425.636,166.771c1.996,0,3.609-1.612,3.609-3.603c0-1.997-1.613-3.606-3.609-3.606    c-1.989,0-3.606,1.61-3.606,3.606C422.029,165.159,423.646,166.771,425.636,166.771"
   id="path3005" />
		<path
   fill="#FFFFFF"
   d="M446.872,166.771c1.993,0,3.605-1.612,3.605-3.603c0-1.997-1.612-3.606-3.605-3.606    c-1.987,0-3.604,1.61-3.604,3.606C443.268,165.159,444.885,166.771,446.872,166.771"
   id="path3007" />
		<path
   fill="#FFFFFF"
   d="M149.553,166.771c1.987,0,3.604-1.612,3.604-3.603c0-1.997-1.616-3.606-3.604-3.606    c-1.991,0-3.607,1.61-3.607,3.606C145.945,165.159,147.562,166.771,149.553,166.771"
   id="path3009" />
		<path
   fill="#FFFFFF"
   d="M170.786,166.771c1.992,0,3.604-1.612,3.604-3.603c0-1.997-1.61-3.606-3.604-3.606    c-1.99,0-3.604,1.61-3.604,3.606C167.181,165.159,168.796,166.771,170.786,166.771"
   id="path3011" />
		<path
   fill="#FFFFFF"
   d="M192.024,166.771c1.993,0,3.604-1.612,3.604-3.603c0-1.997-1.61-3.606-3.604-3.606    c-1.991,0-3.606,1.61-3.606,3.606C188.418,165.159,190.033,166.771,192.024,166.771"
   id="path3013" />
		<path
   fill="#FFFFFF"
   d="M213.259,166.771c1.995,0,3.609-1.612,3.609-3.603c0-1.997-1.614-3.606-3.609-3.606    c-1.988,0-3.603,1.61-3.603,3.606C209.656,165.159,211.27,166.771,213.259,166.771"
   id="path3015" />
		<path
   fill="#FFFFFF"
   d="M234.498,166.771c1.99,0,3.604-1.612,3.604-3.603c0-1.997-1.614-3.606-3.604-3.606    s-3.604,1.61-3.604,3.606C230.893,165.159,232.508,166.771,234.498,166.771"
   id="path3017" />
		<path
   fill="#FFFFFF"
   d="M255.735,166.771c1.99,0,3.604-1.612,3.604-3.603c0-1.997-1.613-3.606-3.604-3.606    c-1.989,0-3.604,1.61-3.604,3.606C252.133,165.159,253.746,166.771,255.735,166.771"
   id="path3019" />
		<path
   fill="#FFFFFF"
   d="M276.972,166.771c1.988,0,3.603-1.612,3.603-3.603c0-1.997-1.613-3.606-3.603-3.606    c-1.99,0-3.604,1.61-3.604,3.606C273.369,165.159,274.981,166.771,276.972,166.771"
   id="path3021" />
		<path
   fill="#FFFFFF"
   d="M138.934,188.01c1.986,0,3.601-1.614,3.601-3.604c0-1.993-1.613-3.604-3.601-3.604    c-1.991,0-3.607,1.611-3.607,3.604C135.326,186.396,136.942,188.01,138.934,188.01"
   id="path3023" />
		<path
   fill="#FFFFFF"
   d="M308.833,188.01c1.99,0,3.606-1.614,3.606-3.604c0-1.993-1.616-3.604-3.606-3.604    s-3.609,1.611-3.609,3.604C305.223,186.396,306.843,188.01,308.833,188.01"
   id="path3025" />
		<path
   fill="#FFFFFF"
   d="M330.068,188.01c1.99,0,3.606-1.614,3.606-3.604c0-1.993-1.616-3.604-3.606-3.604    c-1.994,0-3.604,1.611-3.604,3.604C326.466,186.396,328.074,188.01,330.068,188.01"
   id="path3027" />
		<path
   fill="#FFFFFF"
   d="M351.305,188.01c1.99,0,3.605-1.614,3.605-3.604c0-1.993-1.615-3.604-3.605-3.604    s-3.604,1.611-3.604,3.604C347.702,186.396,349.314,188.01,351.305,188.01"
   id="path3029" />
		<path
   fill="#FFFFFF"
   d="M372.542,188.01c1.992,0,3.611-1.614,3.611-3.604c0-1.993-1.619-3.604-3.611-3.604    c-1.99,0-3.605,1.611-3.605,3.604C368.936,186.396,370.552,188.01,372.542,188.01"
   id="path3031" />
		<path
   fill="#FFFFFF"
   d="M393.777,188.01c1.992,0,3.611-1.614,3.611-3.604c0-1.993-1.619-3.604-3.611-3.604    c-1.99,0-3.603,1.611-3.603,3.604C390.176,186.396,391.787,188.01,393.777,188.01"
   id="path3033" />
		<path
   fill="#FFFFFF"
   d="M415.019,188.01c1.99,0,3.603-1.614,3.603-3.604c0-1.993-1.611-3.604-3.603-3.604s-3.61,1.611-3.61,3.604    C411.408,186.396,413.028,188.01,415.019,188.01"
   id="path3035" />
		<path
   fill="#FFFFFF"
   d="M436.253,188.01c2,0,3.613-1.614,3.613-3.604c0-1.993-1.613-3.604-3.613-3.604    c-1.986,0-3.604,1.611-3.604,3.604C432.647,186.396,434.266,188.01,436.253,188.01"
   id="path3037" />
		<path
   fill="#FFFFFF"
   d="M160.17,188.01c1.991,0,3.608-1.614,3.608-3.604c0-1.993-1.617-3.604-3.608-3.604    c-1.994,0-3.606,1.611-3.606,3.604C156.562,186.396,158.176,188.01,160.17,188.01"
   id="path3039" />
		<path
   fill="#FFFFFF"
   d="M181.405,188.01c1.993,0,3.604-1.614,3.604-3.604c0-1.993-1.609-3.604-3.604-3.604    c-1.991,0-3.605,1.611-3.605,3.604C177.8,186.396,179.414,188.01,181.405,188.01"
   id="path3041" />
		<path
   fill="#FFFFFF"
   d="M202.642,188.01c1.993,0,3.605-1.614,3.605-3.604c0-1.993-1.612-3.604-3.605-3.604    c-1.992,0-3.604,1.611-3.604,3.604C199.038,186.396,200.649,188.01,202.642,188.01"
   id="path3043" />
		<path
   fill="#FFFFFF"
   d="M223.879,188.01c1.993,0,3.605-1.614,3.605-3.604c0-1.993-1.612-3.604-3.605-3.604    c-1.99,0-3.604,1.611-3.604,3.604C220.273,186.396,221.888,188.01,223.879,188.01"
   id="path3045" />
		<path
   fill="#FFFFFF"
   d="M245.117,188.01c1.991,0,3.604-1.614,3.604-3.604c0-1.993-1.613-3.604-3.604-3.604    c-1.99,0-3.604,1.611-3.604,3.604C241.512,186.396,243.127,188.01,245.117,188.01"
   id="path3047" />
		<path
   fill="#FFFFFF"
   d="M266.353,188.01c1.991,0,3.606-1.614,3.606-3.604c0-1.993-1.615-3.604-3.606-3.604    s-3.604,1.611-3.604,3.604C262.75,186.396,264.361,188.01,266.353,188.01"
   id="path3049" />
		<path
   fill="#FFFFFF"
   d="M287.591,188.01c1.991,0,3.604-1.614,3.604-3.604c0-1.993-1.612-3.604-3.604-3.604    c-1.989,0-3.605,1.611-3.605,3.604C283.984,186.396,285.601,188.01,287.591,188.01"
   id="path3051" />
		<path
   fill="#FFFFFF"
   d="M128.313,209.245c1.987,0,3.602-1.608,3.602-3.604c0-1.992-1.612-3.606-3.602-3.606    c-1.99,0-3.606,1.614-3.606,3.606C124.707,207.636,126.323,209.245,128.313,209.245"
   id="path3053" />
		<path
   fill="#FFFFFF"
   d="M298.214,209.245c1.991,0,3.604-1.608,3.604-3.604c0-1.992-1.612-3.606-3.604-3.606    c-1.991,0-3.608,1.614-3.608,3.606C294.604,207.636,296.223,209.245,298.214,209.245"
   id="path3055" />
		<path
   fill="#FFFFFF"
   d="M319.453,209.245c1.989,0,3.604-1.608,3.604-3.604c0-1.992-1.614-3.606-3.604-3.606    c-1.998,0-3.607,1.614-3.607,3.606C315.845,207.636,317.455,209.245,319.453,209.245"
   id="path3057" />
		<path
   fill="#FFFFFF"
   d="M340.687,209.245c1.99,0,3.606-1.608,3.606-3.604c0-1.992-1.616-3.606-3.606-3.606    s-3.608,1.614-3.608,3.606C337.078,207.636,338.696,209.245,340.687,209.245"
   id="path3059" />
		<path
   fill="#FFFFFF"
   d="M361.925,209.245c1.99,0,3.609-1.608,3.609-3.604c0-1.992-1.619-3.606-3.609-3.606    s-3.607,1.614-3.607,3.606C358.316,207.636,359.934,209.245,361.925,209.245"
   id="path3061" />
		<path
   fill="#FFFFFF"
   d="M383.161,209.245c1.989,0,3.612-1.608,3.612-3.604c0-1.992-1.623-3.606-3.612-3.606    c-1.99,0-3.604,1.614-3.604,3.606C379.556,207.636,381.171,209.245,383.161,209.245"
   id="path3063" />
		<path
   fill="#FFFFFF"
   d="M404.397,209.245c1.991,0,3.605-1.608,3.605-3.604c0-1.992-1.614-3.606-3.605-3.606    c-1.989,0-3.604,1.614-3.604,3.606C400.794,207.636,402.408,209.245,404.397,209.245"
   id="path3065" />
		<path
   fill="#FFFFFF"
   d="M425.636,209.245c1.996,0,3.609-1.608,3.609-3.604c0-1.992-1.613-3.606-3.609-3.606    c-1.989,0-3.606,1.614-3.606,3.606C422.029,207.636,423.646,209.245,425.636,209.245"
   id="path3067" />
		<path
   fill="#FFFFFF"
   d="M446.872,209.245c1.993,0,3.605-1.608,3.605-3.604c0-1.992-1.612-3.606-3.605-3.606    c-1.987,0-3.604,1.614-3.604,3.606C443.268,207.636,444.885,209.245,446.872,209.245"
   id="path3069" />
		<path
   fill="#FFFFFF"
   d="M149.553,209.245c1.987,0,3.604-1.608,3.604-3.604c0-1.992-1.616-3.606-3.604-3.606    c-1.991,0-3.607,1.614-3.607,3.606C145.945,207.636,147.562,209.245,149.553,209.245"
   id="path3071" />
		<path
   fill="#FFFFFF"
   d="M170.786,209.245c1.992,0,3.604-1.608,3.604-3.604c0-1.992-1.61-3.606-3.604-3.606    c-1.99,0-3.604,1.614-3.604,3.606C167.181,207.636,168.796,209.245,170.786,209.245"
   id="path3073" />
		<path
   fill="#FFFFFF"
   d="M192.024,209.245c1.993,0,3.604-1.608,3.604-3.604c0-1.992-1.61-3.606-3.604-3.606    c-1.991,0-3.606,1.614-3.606,3.606C188.418,207.636,190.033,209.245,192.024,209.245"
   id="path3075" />
		<path
   fill="#FFFFFF"
   d="M213.259,209.245c1.995,0,3.609-1.608,3.609-3.604c0-1.992-1.614-3.606-3.609-3.606    c-1.988,0-3.603,1.614-3.603,3.606C209.656,207.636,211.27,209.245,213.259,209.245"
   id="path3077" />
		<path
   fill="#FFFFFF"
   d="M234.498,209.245c1.99,0,3.604-1.608,3.604-3.604c0-1.992-1.614-3.606-3.604-3.606    s-3.604,1.614-3.604,3.606C230.893,207.636,232.508,209.245,234.498,209.245"
   id="path3079" />
		<path
   fill="#FFFFFF"
   d="M255.735,209.245c1.99,0,3.604-1.608,3.604-3.604c0-1.992-1.613-3.606-3.604-3.606    c-1.989,0-3.604,1.614-3.604,3.606C252.133,207.636,253.746,209.245,255.735,209.245"
   id="path3081" />
		<path
   fill="#FFFFFF"
   d="M276.972,209.245c1.988,0,3.603-1.608,3.603-3.604c0-1.992-1.613-3.606-3.603-3.606    c-1.99,0-3.604,1.614-3.604,3.606C273.369,207.636,274.981,209.245,276.972,209.245"
   id="path3083" />
		<path
   fill="#FFFFFF"
   d="M138.934,230.485c1.986,0,3.601-1.613,3.601-3.604c0-1.99-1.613-3.605-3.601-3.605    c-1.991,0-3.607,1.615-3.607,3.605C135.327,228.872,136.942,230.485,138.934,230.485"
   id="path3085" />
		<path
   fill="#FFFFFF"
   d="M308.833,230.485c1.99,0,3.606-1.613,3.606-3.604c0-1.99-1.616-3.605-3.606-3.605    s-3.609,1.615-3.609,3.605C305.223,228.872,306.843,230.485,308.833,230.485"
   id="path3087" />
		<path
   fill="#FFFFFF"
   d="M330.068,230.485c1.99,0,3.606-1.613,3.606-3.604c0-1.99-1.616-3.605-3.606-3.605    c-1.994,0-3.604,1.615-3.604,3.605C326.465,228.872,328.074,230.485,330.068,230.485"
   id="path3089" />
		<path
   fill="#FFFFFF"
   d="M351.305,230.485c1.99,0,3.605-1.613,3.605-3.604c0-1.99-1.615-3.605-3.605-3.605    s-3.604,1.615-3.604,3.605C347.702,228.872,349.314,230.485,351.305,230.485"
   id="path3091" />
		<path
   fill="#FFFFFF"
   d="M372.542,230.485c1.992,0,3.611-1.613,3.611-3.604c0-1.99-1.619-3.605-3.611-3.605    c-1.99,0-3.605,1.615-3.605,3.605C368.936,228.872,370.552,230.485,372.542,230.485"
   id="path3093" />
		<path
   fill="#FFFFFF"
   d="M393.777,230.485c1.992,0,3.611-1.613,3.611-3.604c0-1.99-1.619-3.605-3.611-3.605    c-1.99,0-3.603,1.615-3.603,3.605C390.175,228.872,391.787,230.485,393.777,230.485"
   id="path3095" />
		<path
   fill="#FFFFFF"
   d="M415.019,230.485c1.99,0,3.603-1.613,3.603-3.604c0-1.99-1.611-3.605-3.603-3.605s-3.61,1.615-3.61,3.605    C411.409,228.872,413.028,230.485,415.019,230.485"
   id="path3097" />
		<path
   fill="#FFFFFF"
   d="M436.253,230.485c2,0,3.613-1.613,3.613-3.604c0-1.99-1.613-3.605-3.613-3.605    c-1.986,0-3.604,1.615-3.604,3.605C432.648,228.872,434.266,230.485,436.253,230.485"
   id="path3099" />
		<path
   fill="#FFFFFF"
   d="M160.17,230.485c1.991,0,3.608-1.613,3.608-3.604c0-1.99-1.617-3.605-3.608-3.605    c-1.994,0-3.606,1.615-3.606,3.605C156.563,228.872,158.176,230.485,160.17,230.485"
   id="path3101" />
		<path
   fill="#FFFFFF"
   d="M181.405,230.485c1.993,0,3.604-1.613,3.604-3.604c0-1.99-1.609-3.605-3.604-3.605    c-1.991,0-3.605,1.615-3.605,3.605C177.8,228.872,179.414,230.485,181.405,230.485"
   id="path3103" />
		<path
   fill="#FFFFFF"
   d="M202.642,230.485c1.993,0,3.605-1.613,3.605-3.604c0-1.99-1.612-3.605-3.605-3.605    c-1.992,0-3.604,1.615-3.604,3.605C199.038,228.872,200.649,230.485,202.642,230.485"
   id="path3105" />
		<path
   fill="#FFFFFF"
   d="M223.879,230.485c1.993,0,3.605-1.613,3.605-3.604c0-1.99-1.612-3.605-3.605-3.605    c-1.99,0-3.604,1.615-3.604,3.605C220.274,228.872,221.888,230.485,223.879,230.485"
   id="path3107" />
		<path
   fill="#FFFFFF"
   d="M245.117,230.485c1.991,0,3.604-1.613,3.604-3.604c0-1.99-1.613-3.605-3.604-3.605    c-1.99,0-3.604,1.615-3.604,3.605C241.512,228.872,243.127,230.485,245.117,230.485"
   id="path3109" />
		<path
   fill="#FFFFFF"
   d="M266.353,230.485c1.991,0,3.606-1.613,3.606-3.604c0-1.99-1.615-3.605-3.606-3.605    s-3.604,1.615-3.604,3.605C262.75,228.872,264.361,230.485,266.353,230.485"
   id="path3111" />
		<path
   fill="#FFFFFF"
   d="M287.591,230.485c1.991,0,3.604-1.613,3.604-3.604c0-1.99-1.612-3.605-3.604-3.605    c-1.989,0-3.605,1.615-3.605,3.605C283.985,228.872,285.601,230.485,287.591,230.485"
   id="path3113" />
		<path
   fill="#FFFFFF"
   d="M128.313,251.724c1.987,0,3.602-1.615,3.602-3.604c0-1.992-1.612-3.607-3.602-3.607    c-1.99,0-3.606,1.616-3.606,3.607C124.707,250.108,126.323,251.724,128.313,251.724"
   id="path3115" />
		<path
   fill="#FFFFFF"
   d="M298.214,251.724c1.991,0,3.604-1.615,3.604-3.604c0-1.992-1.612-3.607-3.604-3.607    c-1.991,0-3.608,1.616-3.608,3.607C294.604,250.108,296.223,251.724,298.214,251.724"
   id="path3117" />
		<path
   fill="#FFFFFF"
   d="M319.453,251.724c1.989,0,3.604-1.615,3.604-3.604c0-1.992-1.614-3.607-3.604-3.607    c-1.998,0-3.607,1.616-3.607,3.607C315.845,250.108,317.455,251.724,319.453,251.724"
   id="path3119" />
		<path
   fill="#FFFFFF"
   d="M340.687,251.724c1.99,0,3.606-1.615,3.606-3.604c0-1.992-1.616-3.607-3.606-3.607    s-3.608,1.616-3.608,3.607C337.078,250.108,338.696,251.724,340.687,251.724"
   id="path3121" />
		<path
   fill="#FFFFFF"
   d="M361.925,251.724c1.99,0,3.609-1.615,3.609-3.604c0-1.992-1.619-3.607-3.609-3.607    s-3.607,1.616-3.607,3.607C358.316,250.108,359.934,251.724,361.925,251.724"
   id="path3123" />
		<path
   fill="#FFFFFF"
   d="M383.161,251.724c1.989,0,3.612-1.615,3.612-3.604c0-1.992-1.623-3.607-3.612-3.607    c-1.99,0-3.604,1.616-3.604,3.607C379.556,250.108,381.171,251.724,383.161,251.724"
   id="path3125" />
		<path
   fill="#FFFFFF"
   d="M404.397,251.724c1.991,0,3.605-1.615,3.605-3.604c0-1.992-1.614-3.607-3.605-3.607    c-1.989,0-3.604,1.616-3.604,3.607C400.794,250.108,402.408,251.724,404.397,251.724"
   id="path3127" />
		<path
   fill="#FFFFFF"
   d="M425.636,251.724c1.996,0,3.609-1.615,3.609-3.604c0-1.992-1.613-3.607-3.609-3.607    c-1.989,0-3.606,1.616-3.606,3.607C422.029,250.108,423.646,251.724,425.636,251.724"
   id="path3129" />
		<path
   fill="#FFFFFF"
   d="M446.872,251.724c1.993,0,3.605-1.615,3.605-3.604c0-1.992-1.612-3.607-3.605-3.607    c-1.987,0-3.604,1.616-3.604,3.607C443.268,250.108,444.885,251.724,446.872,251.724"
   id="path3131" />
		<path
   fill="#FFFFFF"
   d="M149.553,251.724c1.987,0,3.604-1.615,3.604-3.604c0-1.992-1.616-3.607-3.604-3.607    c-1.991,0-3.607,1.616-3.607,3.607C145.945,250.108,147.562,251.724,149.553,251.724"
   id="path3133" />
		<path
   fill="#FFFFFF"
   d="M170.786,251.724c1.992,0,3.604-1.615,3.604-3.604c0-1.992-1.61-3.607-3.604-3.607    c-1.99,0-3.604,1.616-3.604,3.607C167.181,250.108,168.796,251.724,170.786,251.724"
   id="path3135" />
		<path
   fill="#FFFFFF"
   d="M192.024,251.724c1.993,0,3.604-1.615,3.604-3.604c0-1.992-1.61-3.607-3.604-3.607    c-1.991,0-3.606,1.616-3.606,3.607C188.418,250.108,190.033,251.724,192.024,251.724"
   id="path3137" />
		<path
   fill="#FFFFFF"
   d="M213.259,251.724c1.995,0,3.609-1.615,3.609-3.604c0-1.992-1.614-3.607-3.609-3.607    c-1.988,0-3.603,1.616-3.603,3.607C209.656,250.108,211.27,251.724,213.259,251.724"
   id="path3139" />
		<path
   fill="#FFFFFF"
   d="M234.498,251.724c1.99,0,3.604-1.615,3.604-3.604c0-1.992-1.614-3.607-3.604-3.607    s-3.604,1.616-3.604,3.607C230.893,250.108,232.508,251.724,234.498,251.724"
   id="path3141" />
		<path
   fill="#FFFFFF"
   d="M255.735,251.724c1.99,0,3.604-1.615,3.604-3.604c0-1.992-1.613-3.607-3.604-3.607    c-1.989,0-3.604,1.616-3.604,3.607C252.133,250.108,253.746,251.724,255.735,251.724"
   id="path3143" />
		<path
   fill="#FFFFFF"
   d="M276.972,251.724c1.988,0,3.603-1.615,3.603-3.604c0-1.992-1.613-3.607-3.603-3.607    c-1.99,0-3.604,1.616-3.604,3.607C273.369,250.108,274.981,251.724,276.972,251.724"
   id="path3145" />
		<path
   fill="#FFFFFF"
   d="M138.934,272.96c1.986,0,3.601-1.614,3.601-3.604c0-1.992-1.613-3.607-3.601-3.607    c-1.991,0-3.607,1.615-3.607,3.607C135.326,271.346,136.942,272.96,138.934,272.96"
   id="path3147" />
		<path
   fill="#FFFFFF"
   d="M308.833,272.96c1.99,0,3.606-1.614,3.606-3.604c0-1.992-1.616-3.607-3.606-3.607    s-3.609,1.615-3.609,3.607C305.223,271.346,306.843,272.96,308.833,272.96"
   id="path3149" />
		<path
   fill="#FFFFFF"
   d="M330.068,272.96c1.99,0,3.606-1.614,3.606-3.604c0-1.992-1.616-3.607-3.606-3.607    c-1.994,0-3.604,1.615-3.604,3.607C326.466,271.346,328.074,272.96,330.068,272.96"
   id="path3151" />
		<path
   fill="#FFFFFF"
   d="M351.305,272.96c1.99,0,3.605-1.614,3.605-3.604c0-1.992-1.615-3.607-3.605-3.607    s-3.604,1.615-3.604,3.607C347.702,271.346,349.314,272.96,351.305,272.96"
   id="path3153" />
		<path
   fill="#FFFFFF"
   d="M372.542,272.96c1.992,0,3.611-1.614,3.611-3.604c0-1.992-1.619-3.607-3.611-3.607    c-1.99,0-3.605,1.615-3.605,3.607C368.936,271.346,370.552,272.96,372.542,272.96"
   id="path3155" />
		<path
   fill="#FFFFFF"
   d="M393.777,272.96c1.992,0,3.611-1.614,3.611-3.604c0-1.992-1.619-3.607-3.611-3.607    c-1.99,0-3.603,1.615-3.603,3.607C390.176,271.346,391.787,272.96,393.777,272.96"
   id="path3157" />
		<path
   fill="#FFFFFF"
   d="M415.019,272.96c1.99,0,3.603-1.614,3.603-3.604c0-1.992-1.611-3.607-3.603-3.607s-3.61,1.615-3.61,3.607    C411.408,271.346,413.028,272.96,415.019,272.96"
   id="path3159" />
		<path
   fill="#FFFFFF"
   d="M436.253,272.96c2,0,3.613-1.614,3.613-3.604c0-1.992-1.613-3.607-3.613-3.607    c-1.986,0-3.604,1.615-3.604,3.607C432.647,271.346,434.266,272.96,436.253,272.96"
   id="path3161" />
		<path
   fill="#FFFFFF"
   d="M160.17,272.96c1.991,0,3.608-1.614,3.608-3.604c0-1.992-1.617-3.607-3.608-3.607    c-1.994,0-3.606,1.615-3.606,3.607C156.562,271.346,158.176,272.96,160.17,272.96"
   id="path3163" />
		<path
   fill="#FFFFFF"
   d="M181.405,272.96c1.993,0,3.604-1.614,3.604-3.604c0-1.992-1.609-3.607-3.604-3.607    c-1.991,0-3.605,1.615-3.605,3.607C177.8,271.346,179.414,272.96,181.405,272.96"
   id="path3165" />
		<path
   fill="#FFFFFF"
   d="M202.642,272.96c1.993,0,3.605-1.614,3.605-3.604c0-1.992-1.612-3.607-3.605-3.607    c-1.992,0-3.604,1.615-3.604,3.607C199.038,271.346,200.649,272.96,202.642,272.96"
   id="path3167" />
		<path
   fill="#FFFFFF"
   d="M223.879,272.96c1.993,0,3.605-1.614,3.605-3.604c0-1.992-1.612-3.607-3.605-3.607    c-1.99,0-3.604,1.615-3.604,3.607C220.273,271.346,221.888,272.96,223.879,272.96"
   id="path3169" />
		<path
   fill="#FFFFFF"
   d="M245.117,272.96c1.991,0,3.604-1.614,3.604-3.604c0-1.992-1.613-3.607-3.604-3.607    c-1.99,0-3.604,1.615-3.604,3.607C241.512,271.346,243.127,272.96,245.117,272.96"
   id="path3171" />
		<path
   fill="#FFFFFF"
   d="M266.353,272.96c1.991,0,3.606-1.614,3.606-3.604c0-1.992-1.615-3.607-3.606-3.607    s-3.604,1.615-3.604,3.607C262.75,271.346,264.361,272.96,266.353,272.96"
   id="path3173" />
		<path
   fill="#FFFFFF"
   d="M128.313,294.209c1.987,0,3.602-1.612,3.602-3.604c0-1.998-1.612-3.615-3.602-3.615    c-1.99,0-3.606,1.617-3.606,3.615C124.707,292.596,126.323,294.209,128.313,294.209"
   id="path3175" />
		<path
   fill="#FFFFFF"
   d="M319.453,294.209c1.989,0,3.604-1.612,3.604-3.604c0-1.998-1.614-3.615-3.604-3.615    c-1.998,0-3.607,1.617-3.607,3.615C315.845,292.596,317.455,294.209,319.453,294.209"
   id="path3177" />
		<path
   fill="#FFFFFF"
   d="M340.687,294.209c1.99,0,3.606-1.612,3.606-3.604c0-1.998-1.616-3.615-3.606-3.615    s-3.608,1.617-3.608,3.615C337.078,292.596,338.696,294.209,340.687,294.209"
   id="path3179" />
		<path
   fill="#FFFFFF"
   d="M361.925,294.209c1.99,0,3.609-1.612,3.609-3.604c0-1.998-1.619-3.615-3.609-3.615    s-3.607,1.617-3.607,3.615C358.316,292.596,359.934,294.209,361.925,294.209"
   id="path3181" />
		<path
   fill="#FFFFFF"
   d="M383.161,294.209c1.989,0,3.612-1.612,3.612-3.604c0-1.998-1.623-3.615-3.612-3.615    c-1.99,0-3.604,1.617-3.604,3.615C379.556,292.596,381.171,294.209,383.161,294.209"
   id="path3183" />
		<path
   fill="#FFFFFF"
   d="M404.397,294.209c1.991,0,3.605-1.612,3.605-3.604c0-1.998-1.614-3.615-3.605-3.615    c-1.989,0-3.604,1.617-3.604,3.615C400.794,292.596,402.408,294.209,404.397,294.209"
   id="path3185" />
		<path
   fill="#FFFFFF"
   d="M425.636,294.209c1.996,0,3.609-1.612,3.609-3.604c0-1.998-1.613-3.615-3.609-3.615    c-1.989,0-3.606,1.617-3.606,3.615C422.029,292.596,423.646,294.209,425.636,294.209"
   id="path3187" />
		<path
   fill="#FFFFFF"
   d="M446.872,294.209c1.993,0,3.605-1.612,3.605-3.604c0-1.998-1.612-3.615-3.605-3.615    c-1.987,0-3.604,1.617-3.604,3.615C443.268,292.596,444.885,294.209,446.872,294.209"
   id="path3189" />
		<path
   fill="#FFFFFF"
   d="M149.553,294.209c1.987,0,3.604-1.612,3.604-3.604c0-1.998-1.616-3.615-3.604-3.615    c-1.991,0-3.607,1.617-3.607,3.615C145.945,292.596,147.562,294.209,149.553,294.209"
   id="path3191" />
		<path
   fill="#FFFFFF"
   d="M170.786,294.209c1.992,0,3.604-1.612,3.604-3.604c0-1.998-1.61-3.615-3.604-3.615    c-1.99,0-3.604,1.617-3.604,3.615C167.181,292.596,168.796,294.209,170.786,294.209"
   id="path3193" />
		<path
   fill="#FFFFFF"
   d="M192.024,294.209c1.993,0,3.604-1.612,3.604-3.604c0-1.998-1.61-3.615-3.604-3.615    c-1.991,0-3.606,1.617-3.606,3.615C188.418,292.596,190.033,294.209,192.024,294.209"
   id="path3195" />
		<path
   fill="#FFFFFF"
   d="M213.259,294.209c1.995,0,3.609-1.612,3.609-3.604c0-1.998-1.614-3.615-3.609-3.615    c-1.988,0-3.603,1.617-3.603,3.615C209.656,292.596,211.27,294.209,213.259,294.209"
   id="path3197" />
		<path
   fill="#FFFFFF"
   d="M234.498,294.209c1.99,0,3.604-1.612,3.604-3.604c0-1.998-1.614-3.615-3.604-3.615    s-3.604,1.617-3.604,3.615C230.893,292.596,232.508,294.209,234.498,294.209"
   id="path3199" />
		<path
   fill="#FFFFFF"
   d="M255.735,294.209c1.99,0,3.604-1.612,3.604-3.604c0-1.998-1.613-3.615-3.604-3.615    c-1.989,0-3.604,1.617-3.604,3.615C252.133,292.596,253.746,294.209,255.735,294.209"
   id="path3201" />
		<path
   fill="#FFFFFF"
   d="M138.934,315.446c1.986,0,3.601-1.615,3.601-3.605c0-1.991-1.613-3.605-3.601-3.605    c-1.991,0-3.607,1.614-3.607,3.605C135.326,313.831,136.942,315.446,138.934,315.446"
   id="path3203" />
		<path
   fill="#FFFFFF"
   d="M372.542,315.446c1.992,0,3.611-1.615,3.611-3.605c0-1.991-1.619-3.605-3.611-3.605    c-1.99,0-3.605,1.614-3.605,3.605C368.936,313.831,370.552,315.446,372.542,315.446"
   id="path3205" />
		<path
   fill="#FFFFFF"
   d="M393.777,315.446c1.992,0,3.611-1.615,3.611-3.605c0-1.991-1.619-3.605-3.611-3.605    c-1.99,0-3.603,1.614-3.603,3.605C390.176,313.831,391.787,315.446,393.777,315.446"
   id="path3207" />
		<path
   fill="#FFFFFF"
   d="M415.019,315.446c1.99,0,3.603-1.615,3.603-3.605c0-1.991-1.611-3.605-3.603-3.605s-3.61,1.614-3.61,3.605    C411.408,313.831,413.028,315.446,415.019,315.446"
   id="path3209" />
		<path
   fill="#FFFFFF"
   d="M436.253,315.446c2,0,3.613-1.615,3.613-3.605c0-1.991-1.613-3.605-3.613-3.605    c-1.986,0-3.604,1.614-3.604,3.605C432.647,313.831,434.266,315.446,436.253,315.446"
   id="path3211" />
		<path
   fill="#FFFFFF"
   d="M160.17,315.446c1.991,0,3.608-1.615,3.608-3.605c0-1.991-1.617-3.605-3.608-3.605    c-1.994,0-3.606,1.614-3.606,3.605C156.562,313.831,158.176,315.446,160.17,315.446"
   id="path3213" />
		<path
   fill="#FFFFFF"
   d="M181.405,315.446c1.993,0,3.604-1.615,3.604-3.605c0-1.991-1.609-3.605-3.604-3.605    c-1.991,0-3.605,1.614-3.605,3.605C177.8,313.831,179.414,315.446,181.405,315.446"
   id="path3215" />
		<path
   fill="#FFFFFF"
   d="M202.642,315.446c1.993,0,3.605-1.615,3.605-3.605c0-1.991-1.612-3.605-3.605-3.605    c-1.992,0-3.604,1.614-3.604,3.605C199.038,313.831,200.649,315.446,202.642,315.446"
   id="path3217" />
		<path
   fill="#FFFFFF"
   d="M128.313,336.686c1.987,0,3.602-1.613,3.602-3.604c0-1.995-1.612-3.61-3.602-3.61    c-1.99,0-3.606,1.616-3.606,3.61C124.707,335.073,126.323,336.686,128.313,336.686"
   id="path3219" />
		<path
   fill="#FFFFFF"
   d="M404.397,336.686c1.991,0,3.605-1.613,3.605-3.604c0-1.995-1.614-3.61-3.605-3.61    c-1.989,0-3.604,1.616-3.604,3.61C400.794,335.073,402.408,336.686,404.397,336.686"
   id="path3221" />
		<path
   fill="#FFFFFF"
   d="M425.636,336.686c1.996,0,3.609-1.613,3.609-3.604c0-1.995-1.613-3.61-3.609-3.61    c-1.989,0-3.606,1.616-3.606,3.61C422.029,335.073,423.646,336.686,425.636,336.686"
   id="path3223" />
		<path
   fill="#FFFFFF"
   d="M446.872,336.686c1.993,0,3.605-1.613,3.605-3.604c0-1.995-1.612-3.61-3.605-3.61    c-1.987,0-3.604,1.616-3.604,3.61C443.268,335.073,444.885,336.686,446.872,336.686"
   id="path3225" />
		<path
   fill="#FFFFFF"
   d="M149.553,336.686c1.987,0,3.604-1.613,3.604-3.604c0-1.995-1.616-3.61-3.604-3.61    c-1.991,0-3.607,1.616-3.607,3.61C145.945,335.073,147.562,336.686,149.553,336.686"
   id="path3227" />
		<path
   fill="#FFFFFF"
   d="M170.786,336.686c1.992,0,3.604-1.613,3.604-3.604c0-1.995-1.61-3.61-3.604-3.61    c-1.99,0-3.604,1.616-3.604,3.61C167.181,335.073,168.796,336.686,170.786,336.686"
   id="path3229" />
		<path
   fill="#FFFFFF"
   d="M138.934,357.921c1.986,0,3.601-1.608,3.601-3.603s-1.613-3.609-3.601-3.609    c-1.991,0-3.607,1.615-3.607,3.609C135.326,356.312,136.942,357.921,138.934,357.921"
   id="path3231" />
		<path
   fill="#FFFFFF"
   d="M436.253,357.921c2,0,3.613-1.608,3.613-3.603s-1.613-3.609-3.613-3.609c-1.986,0-3.604,1.615-3.604,3.609    C432.647,356.312,434.266,357.921,436.253,357.921"
   id="path3233" />
		<path
   fill="#FFFFFF"
   d="M128.313,379.16c1.987,0,3.602-1.615,3.602-3.601c0-1.995-1.612-3.609-3.602-3.609    c-1.99,0-3.606,1.614-3.606,3.609C124.707,377.544,126.323,379.16,128.313,379.16"
   id="path3235" />
		<path
   fill="#FFFFFF"
   d="M446.872,379.16c1.993,0,3.605-1.615,3.605-3.601c0-1.995-1.612-3.609-3.605-3.609    c-1.987,0-3.604,1.614-3.604,3.609C443.268,377.544,444.885,379.16,446.872,379.16"
   id="path3237" />
	</g>
	<path
   display="inline"
   fill="#FFFFFF"
   d="M413.991,349.93c-30.466-30.466-76.459-49.781-121.145-51.199v-25.186   c0-2.938-2.377-5.307-5.311-5.307c-2.935,0-5.31,2.37-5.31,5.307v25.186c-44.979,1.417-91.002,20.57-121.22,50.788   c-22.865,22.871-34.953,50.264-34.948,79.212c0,2.931,2.372,5.307,5.306,5.307c2.936,0,5.312-2.375,5.312-5.307   c0-14.287,11.626-25.913,25.909-25.913c14.288,0,25.916,11.626,25.916,25.913c0,2.931,2.372,5.307,5.31,5.307   c2.928,0,5.308-2.375,5.308-5.307c0-14.287,11.622-25.913,25.911-25.913c14.29,0,25.913,11.626,25.913,25.91   c0,2.935,2.375,5.31,5.311,5.31c2.933,0,5.308-2.375,5.308-5.31c0-12.488,8.887-22.945,20.668-25.376v205.644   c0,18.11,14.734,32.853,32.844,32.853c18.112,0,32.842-14.741,32.842-32.853c0-6.894-2.113-13.498-6.117-19.093   c-1.703-2.386-5.018-2.933-7.398-1.229c-2.391,1.706-2.94,5.019-1.232,7.407c2.705,3.777,4.136,8.25,4.136,12.914   c0,12.254-9.973,22.23-22.229,22.23c-12.251,0-22.225-9.978-22.225-22.23V403.395c11.714,2.479,20.539,12.891,20.539,25.333   c0,2.935,2.375,5.31,5.311,5.31c2.925,0,5.308-2.375,5.308-5.31c0-14.287,11.624-25.916,25.914-25.916   c14.283,0,25.917,11.628,25.917,25.916c0,2.935,2.366,5.31,5.305,5.31c2.93,0,5.306-2.375,5.306-5.31   c0-14.287,11.629-25.916,25.91-25.916c14.419,0,26.152,11.628,26.152,25.916c0,2.935,2.374,5.31,5.311,5.31   c2.925,0,5.309-2.375,5.309-5.31C449.126,400.159,436.98,372.909,413.991,349.93"
   id="path3239" />
	<path
   display="inline"
   fill="#1D1D1B"
   d="M240.244,345.274l-0.003-7.166c0-1.878-1.522-3.4-3.401-3.4h-7.648   c-1.878,0-3.401,1.523-3.401,3.401s1.523,3.401,3.401,3.401h4.249l0.002,3.765c0,2.99-2.431,5.422-5.419,5.422   c-2.99,0-5.422-2.432-5.422-5.422v-14.332c0-2.988,2.432-5.419,5.422-5.419c2.319,0,4.382,1.474,5.13,3.667   c0.608,1.778,2.542,2.727,4.318,2.12c1.777-0.607,2.727-2.541,2.119-4.318c-1.688-4.948-6.338-8.271-11.568-8.271   c-6.741,0-12.226,5.481-12.226,12.222v14.332c0,6.741,5.484,12.225,12.226,12.225C234.761,357.5,240.244,352.017,240.244,345.274z"
   id="path3241" />
	<path
   display="inline"
   fill="#1D1D1B"
   d="M258.186,318.722c-6.74,0-12.224,5.481-12.224,12.222v22.233c0,1.878,1.523,3.4,3.401,3.4   s3.401-1.522,3.401-3.4v-9.581h10.841v9.581c0,1.878,1.522,3.4,3.4,3.4c1.879,0,3.401-1.522,3.401-3.4v-22.233   C270.41,324.205,264.926,318.722,258.186,318.722z M252.766,336.794v-5.85c0-2.988,2.432-5.419,5.42-5.419   c2.987,0,5.421,2.431,5.421,5.419v5.85H252.766z"
   id="path3243" />
	<path
   display="inline"
   fill="#1D1D1B"
   d="M338.02,356.579c1.879,0,3.401-1.522,3.401-3.4v-9.581h10.842v9.581   c0,1.878,1.521,3.4,3.4,3.4c1.88,0,3.401-1.522,3.401-3.4v-22.233c0-6.739-5.483-12.222-12.224-12.222   c-6.741,0-12.225,5.481-12.225,12.222v22.233C334.618,355.056,336.141,356.579,338.02,356.579z M346.843,325.525   c2.988,0,5.421,2.431,5.421,5.419v5.85h-10.842v-5.85C341.422,327.956,343.853,325.525,346.843,325.525z"
   id="path3245" />
	<path
   display="inline"
   fill="#1D1D1B"
   d="M316.608,318.722c-6.739,0-12.222,5.481-12.222,12.222v14.332   c0,6.741,5.482,12.225,12.222,12.225c6.738,0,12.219-5.483,12.219-12.225v-14.332C328.827,324.205,323.346,318.722,316.608,318.722   z M322.024,345.276c0,2.99-2.43,5.422-5.416,5.422c-2.988,0-5.419-2.432-5.419-5.422v-14.332c0-2.988,2.431-5.419,5.419-5.419   c2.986,0,5.416,2.431,5.416,5.419V345.276z"
   id="path3247" />
	<path
   display="inline"
   fill="#1D1D1B"
   d="M296.167,339.465c1.834-2.109,2.916-4.865,2.916-7.854   c0-6.599-5.368-11.967-11.969-11.967l-7.574,0.003c-1.878,0-3.399,1.522-3.399,3.4v30.13c0,1.878,1.522,3.4,3.4,3.4   s3.401-1.522,3.401-3.4v-26.729l4.173-0.002c2.848,0,5.165,2.317,5.165,5.165c0,2.409-1.624,4.464-3.949,4.999   c-1.629,0.374-2.745,1.877-2.632,3.544s1.421,3.006,3.085,3.158c2.504,0.228,4.467,2.381,4.467,4.9v4.963   c0,1.879,1.523,3.401,3.401,3.401s3.401-1.522,3.401-3.401v-4.963C300.053,344.737,298.568,341.613,296.167,339.465z"
   id="path3249" />
	<path
   display="inline"
   fill="#1D1D1B"
   d="M177.249,363.862c-1.409,0-2.551,1.142-2.551,2.551v8.33h-7.682v-8.33   c0-1.409-1.143-2.551-2.552-2.551c-1.408,0-2.551,1.142-2.551,2.551v23.76c0,1.409,1.143,2.552,2.551,2.552   c1.409,0,2.552-1.143,2.552-2.552v-10.327h7.682v10.327c0,1.409,1.142,2.552,2.551,2.552s2.551-1.143,2.551-2.552v-23.76   C179.8,365.004,178.658,363.862,177.249,363.862z"
   id="path3251" />
	<path
   display="inline"
   fill="#1D1D1B"
   d="M346.885,387.622h-8.863v-21.208c0-1.409-1.142-2.551-2.551-2.551   s-2.551,1.142-2.551,2.551v23.76c0,1.409,1.142,2.552,2.551,2.552h11.414c1.409,0,2.551-1.143,2.551-2.552   C349.436,388.765,348.295,387.622,346.885,387.622z"
   id="path3253" />
	<path
   display="inline"
   fill="#1D1D1B"
   d="M223.577,376.206c1.388,0.207,2.692-0.751,2.9-2.146c0.071-0.479,0.107-0.957,0.107-1.418   c0-5.242-4.264-9.506-9.505-9.506s-9.505,4.265-9.505,9.506v11.302c0,5.243,4.264,9.508,9.505,9.508s9.505-4.265,9.505-9.508   c0-0.516-0.045-1.048-0.135-1.581c-0.233-1.389-1.548-2.323-2.938-2.094c-1.391,0.232-2.327,1.549-2.095,2.938   c0.043,0.258,0.064,0.499,0.064,0.736c0,2.429-1.976,4.405-4.403,4.405s-4.403-1.977-4.403-4.405v-11.302   c0-2.429,1.976-4.404,4.403-4.404s4.403,1.976,4.403,4.404c0,0.21-0.019,0.433-0.052,0.664   C221.223,374.699,222.183,375.998,223.577,376.206z"
   id="path3255" />
	<path
   display="inline"
   fill="#1D1D1B"
   d="M325.704,376.207c1.392,0.206,2.689-0.76,2.896-2.152c0.07-0.48,0.104-0.955,0.104-1.412   c0-5.242-4.263-9.506-9.503-9.506c-5.241,0-9.506,4.265-9.506,9.506v11.302c0,5.243,4.266,9.508,9.506,9.508   s9.503-4.265,9.503-9.508c0-0.51-0.043-1.023-0.132-1.568c-0.226-1.39-1.534-2.334-2.928-2.107   c-1.391,0.227-2.334,1.537-2.108,2.928c0.044,0.271,0.065,0.515,0.065,0.748c0,2.429-1.974,4.405-4.401,4.405   s-4.403-1.977-4.403-4.405v-11.302c0-2.429,1.976-4.404,4.403-4.404s4.401,1.976,4.401,4.404c0,0.209-0.019,0.435-0.052,0.67   C323.346,374.707,324.31,376.002,325.704,376.207z"
   id="path3257" />
	<path
   display="inline"
   fill="#1D1D1B"
   d="M367.769,363.862c-1.409,0-2.551,1.142-2.551,2.551v17.53   c0,2.429-1.978,4.405-4.405,4.405s-4.404-1.977-4.404-4.405v-17.53c0-1.409-1.142-2.551-2.551-2.551s-2.551,1.142-2.551,2.551   v17.53c0,5.243,4.264,9.508,9.506,9.508s9.507-4.265,9.507-9.508v-17.53C370.319,365.004,369.178,363.862,367.769,363.862z"
   id="path3259" />
	<path
   display="inline"
   fill="#1D1D1B"
   d="M193.822,363.136c-5.241,0-9.505,4.265-9.505,9.507v17.53   c0,1.409,1.142,2.552,2.551,2.552s2.551-1.143,2.551-2.552v-7.849h8.808v7.849c0,1.409,1.142,2.552,2.551,2.552   s2.551-1.143,2.551-2.552v-17.53C203.329,367.4,199.064,363.136,193.822,363.136z M189.419,377.222v-4.58   c0-2.43,1.976-4.404,4.403-4.404s4.404,1.976,4.404,4.404v4.58H189.419z"
   id="path3261" />
	<path
   display="inline"
   fill="#1D1D1B"
   d="M265.956,387.622h-6.022c-1.515,0-2.745-1.231-2.745-2.748v-5.312h6.782   c1.408,0,2.551-1.143,2.551-2.551c0-1.409-1.143-2.552-2.551-2.552h-6.782v-2.747c0-1.515,1.23-2.748,2.745-2.748h5.371   c1.408,0,2.551-1.142,2.551-2.551s-1.143-2.551-2.551-2.551h-5.371c-4.327,0-7.848,3.521-7.848,7.85v13.162   c0,4.329,3.521,7.851,7.848,7.851h6.022c1.409,0,2.551-1.143,2.551-2.551C268.507,388.765,267.365,387.622,265.956,387.622z"
   id="path3263" />
	<path
   display="inline"
   fill="#1D1D1B"
   d="M410.398,387.622h-6.022c-1.516,0-2.747-1.231-2.747-2.748v-5.312h6.783   c1.409,0,2.552-1.143,2.552-2.551c0-1.409-1.143-2.552-2.552-2.552h-6.783v-2.747c0-1.515,1.231-2.748,2.747-2.748h5.37   c1.409,0,2.552-1.142,2.552-2.551s-1.143-2.551-2.552-2.551h-5.37c-4.328,0-7.85,3.521-7.85,7.85v13.162   c0,4.329,3.521,7.851,7.85,7.851h6.022c1.409,0,2.551-1.143,2.551-2.551C412.949,388.765,411.808,387.622,410.398,387.622z"
   id="path3265" />
	<path
   display="inline"
   fill="#1D1D1B"
   d="M241.994,375.635l5.562-7.732c0.822-1.144,0.562-2.738-0.582-3.561   c-1.145-0.822-2.737-0.562-3.562,0.581l-7.054,9.81v-8.317c0-1.409-1.143-2.551-2.551-2.551c-1.409,0-2.552,1.142-2.552,2.551   v23.757c0,1.409,1.143,2.552,2.552,2.552c1.408,0,2.551-1.143,2.551-2.552v-9.894h2.732c2.428,0,4.402,1.976,4.402,4.404v5.488   c0,1.409,1.143,2.552,2.551,2.552c1.409,0,2.552-1.143,2.552-2.552v-5.488C248.595,380.455,245.818,376.866,241.994,375.635z"
   id="path3267" />
	<path
   display="inline"
   fill="#1D1D1B"
   d="M389.047,376.219c0.591-1.171,0.909-2.482,0.909-3.843c0-4.7-3.82-8.522-8.525-8.522   l-3.877,0.012c-1.406,0.004-2.543,1.146-2.543,2.551v23.757c0,1.409,1.142,2.552,2.551,2.552h6.434   c4.979,0,9.028-4.052,9.028-9.029C393.022,380.605,391.46,377.844,389.047,376.219z M383.994,387.622h-3.883v-18.663l1.326-0.004   c1.884,0,3.417,1.534,3.417,3.42c0,1.15-0.536,2.169-1.469,2.797c-0.886,0.596-1.307,1.679-1.058,2.715   c0.25,1.036,1.118,1.809,2.178,1.936c1.945,0.233,3.415,1.898,3.415,3.873C387.922,385.86,386.159,387.622,383.994,387.622z"
   id="path3269" />
	<g
   display="inline"
   id="g3271">
		<g
   id="g3273">
			<path
   fill="#1D1D1B"
   d="M287.838,392.725c-1.408,0-2.551-1.143-2.551-2.552V386.2c0-2.015-1.553-3.711-3.61-3.945     c-1.227-0.139-2.178-1.136-2.259-2.366c-0.081-1.231,0.731-2.345,1.929-2.644c1.871-0.467,3.177-2.144,3.177-4.077     c0-2.317-1.886-4.203-4.204-4.203l-3.213,0.001v21.207c0,1.409-1.143,2.552-2.551,2.552c-1.409,0-2.552-1.143-2.552-2.552     v-23.757c0-1.409,1.143-2.55,2.551-2.551l5.765-0.003c5.133,0,9.308,4.174,9.308,9.306c0,2.36-0.88,4.547-2.365,6.208     c1.929,1.671,3.13,4.121,3.13,6.824v3.973C290.389,391.583,289.247,392.725,287.838,392.725z"
   id="path3275" />
		</g>
	</g>
</g>
<path
   style="fill:none;stroke:#000000;stroke-opacity:1"
   d="m 401.37857,324.70513 -26.12003,-21.03256 -29.69667,-15.73097 -32.07456,-10.14896 -33.25374,-4.28651 m 0,0 0,-6.2965 0,-6.2965 0,-6.2965 0,-6.2965 m 0,0 -0.40281,-2.04471 -1.1573,-1.7036 -1.70506,-1.1562 -2.04608,-0.40253 m 0,0 -2.0447,0.40201 -1.70475,1.15562 -1.15755,1.70359 -0.40305,2.04588 m 0,0 0,6.2965 0,6.2965 0,6.2965 0,6.2965 m 0,0 -33.24635,4.21944 -32.0968,10.01051 -29.73023,15.59253 -26.14662,20.96552 m 0,0 -14.39423,16.91619 -11.08593,19.23913 -7.08284,20.96446 -2.38498,22.09222 m 0,0 0.40268,2.04326 1.15584,1.70361 1.70311,1.15693 2.0445,0.40325 m 0,0 2.04448,-0.4024 1.70518,-1.15575 1.15837,-1.70344 0.40405,-2.0455 m 0,0 1.98201,-9.97714 5.63848,-8.30708 8.3055,-5.64323 9.98302,-1.98556 m 0,0 9.97861,1.98229 8.3081,5.63937 5.64375,8.30679 1.98555,9.98456 m 0,0 0.40306,2.04419 1.15696,1.70364 1.70446,1.15649 2.04559,0.40273 m 0,0 2.04282,-0.40345 1.70375,-1.15637 1.15744,-1.70323 0.40387,-2.04404 m 0,0 1.98183,-9.97813 5.63878,-8.30727 8.30624,-5.64282 9.98417,-1.98479 m 0,0 9.97781,1.98172 8.30714,5.63862 5.64291,8.30594 1.98516,9.98373 m 0,0 0.40289,2.04499 1.15705,1.70458 1.70483,1.1573 2.04626,0.40318 m 0,0 2.04421,-0.40305 1.70389,-1.15701 1.15685,-1.70448 0.40313,-2.04551 m 0,0 1.49951,-8.71773 4.34596,-7.62052 6.59023,-5.79539 m 8.23232,-3.24236 0,51.411 0,51.411 0,51.411 0,51.411 m 0,0 2.51285,12.64707 7.14777,10.53197 10.52845,7.15572 12.65491,2.51829 m 0,0 12.64705,-2.5142 10.5283,-7.15138 7.15111,-10.53183 2.51553,-12.65555 m 0,0 -0.38642,-5.07642 -1.17147,-4.95096 -1.92172,-4.71052 -2.63717,-4.3551 m 0,0 -1.51441,-1.42748 -1.93019,-0.71268 -2.05739,0.0502 -1.89601,0.86108 m 0,0 -1.4307,1.51591 -0.71416,1.93224 0.0503,2.05991 0.86272,1.89894 m 0,0 1.78356,2.94539 1.29917,3.18623 0.79177,3.34893 0.26138,3.43345 m 0,0 -1.69996,8.56026 -4.83774,7.12679 -7.12614,4.84075 -8.56517,1.70217 m 0,0 -8.55873,-1.70098 -7.12494,-4.83883 -4.83935,-7.12644 -1.70198,-8.5638 m 0,0 0,-51.4 0,-51.4 0,-51.4 0,-51.4 m 0,0 8.18198,3.26113 6.54945,5.78913 4.3185,7.59726 1.4891,8.68548 m 0,0 0.40289,2.04499 1.15705,1.70457 1.70483,1.15731 2.04626,0.40318 m 0,0 2.04311,-0.40412 1.70371,-1.15736 1.15732,-1.70413 0.40391,-2.04444 m 0,0 1.98234,-9.97896 5.63956,-8.30818 8.30712,-5.64361 9.985,-1.98525 m 0,0 9.97844,1.98344 8.30831,5.64053 5.64418,8.30755 1.98606,9.98449 m 0,0 0.4014,2.04474 1.15482,1.70491 1.70298,1.15761 2.04589,0.40279 m 0,0 2.04355,-0.40344 1.70315,-1.15728 1.15635,-1.70443 0.40312,-2.0449 m 0,0 1.98239,-9.97737 5.63878,-8.30794 8.30569,-5.64429 9.98314,-1.9864 m 0,0 10.02919,1.96601 8.38566,5.61833 5.71624,8.30516 2.02091,10.02651 m 0,0 0.40278,2.04511 1.15701,1.70462 1.70488,1.15727 2.0464,0.40305 m 0,0 2.04323,-0.40412 1.70406,-1.15729 1.15766,-1.7041 0.40405,-2.04454 m 0,0 -2.43977,-22.00378 -7.17175,-20.84929 -11.15123,-19.12226 -14.37826,-16.82267"
   id="path3530"
   inkscape:connector-curvature="0"
   sodipodi:nodetypes="ccccccccccccccccccccccccccccccccccccccccccccccccccccccccccccccccccccccccccccccccccccccccccccccccccccccccccccccccccccccccccccccccccccccccccccccccccccccccccccccccccccccccccccccccccccccccccccccccccccccc" />
<g
   id="Logo_Garoa_verde"
   display="none">
	<path
   display="inline"
   fill="#006837"
   d="M471.96,628.1c0,14.09-11.423,25.512-25.513,25.512h-317.71   c-14.09,0-25.512-11.422-25.512-25.512V160.835c0-14.09,11.422-25.512,25.512-25.512h317.71c14.09,0,25.513,11.422,25.513,25.512   V628.1z"
   id="path3569" />
	<g
   display="inline"
   id="g3571">
		<path
   fill="#00FF00"
   d="M128.313,166.771c1.987,0,3.602-1.612,3.602-3.603c0-1.997-1.612-3.606-3.602-3.606    c-1.99,0-3.606,1.61-3.606,3.606C124.707,165.159,126.323,166.771,128.313,166.771"
   id="path3573" />
		<path
   fill="#00FF00"
   d="M298.214,166.771c1.991,0,3.604-1.612,3.604-3.603c0-1.997-1.612-3.606-3.604-3.606    c-1.991,0-3.608,1.61-3.608,3.606C294.604,165.159,296.223,166.771,298.214,166.771"
   id="path3575" />
		<path
   fill="#00FF00"
   d="M319.453,166.771c1.989,0,3.604-1.612,3.604-3.603c0-1.997-1.614-3.606-3.604-3.606    c-1.998,0-3.607,1.61-3.607,3.606C315.845,165.159,317.455,166.771,319.453,166.771"
   id="path3577" />
		<path
   fill="#00FF00"
   d="M340.687,166.771c1.99,0,3.606-1.612,3.606-3.603c0-1.997-1.616-3.606-3.606-3.606    s-3.608,1.61-3.608,3.606C337.078,165.159,338.696,166.771,340.687,166.771"
   id="path3579" />
		<path
   fill="#00FF00"
   d="M361.925,166.771c1.99,0,3.609-1.612,3.609-3.603c0-1.997-1.619-3.606-3.609-3.606    s-3.607,1.61-3.607,3.606C358.316,165.159,359.934,166.771,361.925,166.771"
   id="path3581" />
		<path
   fill="#00FF00"
   d="M383.161,166.771c1.989,0,3.612-1.612,3.612-3.603c0-1.997-1.623-3.606-3.612-3.606    c-1.99,0-3.604,1.61-3.604,3.606C379.556,165.159,381.171,166.771,383.161,166.771"
   id="path3583" />
		<path
   fill="#00FF00"
   d="M404.397,166.771c1.991,0,3.605-1.612,3.605-3.603c0-1.997-1.614-3.606-3.605-3.606    c-1.989,0-3.604,1.61-3.604,3.606C400.794,165.159,402.408,166.771,404.397,166.771"
   id="path3585" />
		<path
   fill="#00FF00"
   d="M425.636,166.771c1.996,0,3.609-1.612,3.609-3.603c0-1.997-1.613-3.606-3.609-3.606    c-1.989,0-3.606,1.61-3.606,3.606C422.029,165.159,423.646,166.771,425.636,166.771"
   id="path3587" />
		<path
   fill="#00FF00"
   d="M446.872,166.771c1.993,0,3.605-1.612,3.605-3.603c0-1.997-1.612-3.606-3.605-3.606    c-1.987,0-3.604,1.61-3.604,3.606C443.268,165.159,444.885,166.771,446.872,166.771"
   id="path3589" />
		<path
   fill="#00FF00"
   d="M149.553,166.771c1.987,0,3.604-1.612,3.604-3.603c0-1.997-1.616-3.606-3.604-3.606    c-1.991,0-3.607,1.61-3.607,3.606C145.945,165.159,147.562,166.771,149.553,166.771"
   id="path3591" />
		<path
   fill="#00FF00"
   d="M170.786,166.771c1.992,0,3.604-1.612,3.604-3.603c0-1.997-1.61-3.606-3.604-3.606    c-1.99,0-3.604,1.61-3.604,3.606C167.181,165.159,168.796,166.771,170.786,166.771"
   id="path3593" />
		<path
   fill="#00FF00"
   d="M192.024,166.771c1.993,0,3.604-1.612,3.604-3.603c0-1.997-1.61-3.606-3.604-3.606    c-1.991,0-3.606,1.61-3.606,3.606C188.418,165.159,190.033,166.771,192.024,166.771"
   id="path3595" />
		<path
   fill="#00FF00"
   d="M213.259,166.771c1.995,0,3.609-1.612,3.609-3.603c0-1.997-1.614-3.606-3.609-3.606    c-1.988,0-3.603,1.61-3.603,3.606C209.656,165.159,211.27,166.771,213.259,166.771"
   id="path3597" />
		<path
   fill="#00FF00"
   d="M234.498,166.771c1.99,0,3.604-1.612,3.604-3.603c0-1.997-1.614-3.606-3.604-3.606    s-3.604,1.61-3.604,3.606C230.893,165.159,232.508,166.771,234.498,166.771"
   id="path3599" />
		<path
   fill="#00FF00"
   d="M255.735,166.771c1.99,0,3.604-1.612,3.604-3.603c0-1.997-1.613-3.606-3.604-3.606    c-1.989,0-3.604,1.61-3.604,3.606C252.133,165.159,253.746,166.771,255.735,166.771"
   id="path3601" />
		<path
   fill="#00FF00"
   d="M276.972,166.771c1.988,0,3.603-1.612,3.603-3.603c0-1.997-1.613-3.606-3.603-3.606    c-1.99,0-3.604,1.61-3.604,3.606C273.369,165.159,274.981,166.771,276.972,166.771"
   id="path3603" />
		<path
   fill="#00FF00"
   d="M138.934,188.01c1.986,0,3.601-1.614,3.601-3.604c0-1.993-1.613-3.604-3.601-3.604    c-1.991,0-3.607,1.611-3.607,3.604C135.326,186.396,136.942,188.01,138.934,188.01"
   id="path3605" />
		<path
   fill="#00FF00"
   d="M308.833,188.01c1.99,0,3.606-1.614,3.606-3.604c0-1.993-1.616-3.604-3.606-3.604    s-3.609,1.611-3.609,3.604C305.223,186.396,306.843,188.01,308.833,188.01"
   id="path3607" />
		<path
   fill="#00FF00"
   d="M330.068,188.01c1.99,0,3.606-1.614,3.606-3.604c0-1.993-1.616-3.604-3.606-3.604    c-1.994,0-3.604,1.611-3.604,3.604C326.466,186.396,328.074,188.01,330.068,188.01"
   id="path3609" />
		<path
   fill="#00FF00"
   d="M351.305,188.01c1.99,0,3.605-1.614,3.605-3.604c0-1.993-1.615-3.604-3.605-3.604    s-3.604,1.611-3.604,3.604C347.702,186.396,349.314,188.01,351.305,188.01"
   id="path3611" />
		<path
   fill="#00FF00"
   d="M372.542,188.01c1.992,0,3.611-1.614,3.611-3.604c0-1.993-1.619-3.604-3.611-3.604    c-1.99,0-3.605,1.611-3.605,3.604C368.936,186.396,370.552,188.01,372.542,188.01"
   id="path3613" />
		<path
   fill="#00FF00"
   d="M393.777,188.01c1.992,0,3.611-1.614,3.611-3.604c0-1.993-1.619-3.604-3.611-3.604    c-1.99,0-3.603,1.611-3.603,3.604C390.176,186.396,391.787,188.01,393.777,188.01"
   id="path3615" />
		<path
   fill="#00FF00"
   d="M415.019,188.01c1.99,0,3.603-1.614,3.603-3.604c0-1.993-1.611-3.604-3.603-3.604s-3.61,1.611-3.61,3.604    C411.408,186.396,413.028,188.01,415.019,188.01"
   id="path3617" />
		<path
   fill="#00FF00"
   d="M436.253,188.01c2,0,3.613-1.614,3.613-3.604c0-1.993-1.613-3.604-3.613-3.604    c-1.986,0-3.604,1.611-3.604,3.604C432.647,186.396,434.266,188.01,436.253,188.01"
   id="path3619" />
		<path
   fill="#00FF00"
   d="M160.17,188.01c1.991,0,3.608-1.614,3.608-3.604c0-1.993-1.617-3.604-3.608-3.604    c-1.994,0-3.606,1.611-3.606,3.604C156.562,186.396,158.176,188.01,160.17,188.01"
   id="path3621" />
		<path
   fill="#00FF00"
   d="M181.405,188.01c1.993,0,3.604-1.614,3.604-3.604c0-1.993-1.609-3.604-3.604-3.604    c-1.991,0-3.605,1.611-3.605,3.604C177.8,186.396,179.414,188.01,181.405,188.01"
   id="path3623" />
		<path
   fill="#00FF00"
   d="M202.642,188.01c1.993,0,3.605-1.614,3.605-3.604c0-1.993-1.612-3.604-3.605-3.604    c-1.992,0-3.604,1.611-3.604,3.604C199.038,186.396,200.649,188.01,202.642,188.01"
   id="path3625" />
		<path
   fill="#00FF00"
   d="M223.879,188.01c1.993,0,3.605-1.614,3.605-3.604c0-1.993-1.612-3.604-3.605-3.604    c-1.99,0-3.604,1.611-3.604,3.604C220.273,186.396,221.888,188.01,223.879,188.01"
   id="path3627" />
		<path
   fill="#00FF00"
   d="M245.117,188.01c1.991,0,3.604-1.614,3.604-3.604c0-1.993-1.613-3.604-3.604-3.604    c-1.99,0-3.604,1.611-3.604,3.604C241.512,186.396,243.127,188.01,245.117,188.01"
   id="path3629" />
		<path
   fill="#00FF00"
   d="M266.353,188.01c1.991,0,3.606-1.614,3.606-3.604c0-1.993-1.615-3.604-3.606-3.604    s-3.604,1.611-3.604,3.604C262.75,186.396,264.361,188.01,266.353,188.01"
   id="path3631" />
		<path
   fill="#00FF00"
   d="M287.591,188.01c1.991,0,3.604-1.614,3.604-3.604c0-1.993-1.612-3.604-3.604-3.604    c-1.989,0-3.605,1.611-3.605,3.604C283.984,186.396,285.601,188.01,287.591,188.01"
   id="path3633" />
		<path
   fill="#00FF00"
   d="M128.313,209.245c1.987,0,3.602-1.608,3.602-3.604c0-1.992-1.612-3.606-3.602-3.606    c-1.99,0-3.606,1.614-3.606,3.606C124.707,207.636,126.323,209.245,128.313,209.245"
   id="path3635" />
		<path
   fill="#00FF00"
   d="M298.214,209.245c1.991,0,3.604-1.608,3.604-3.604c0-1.992-1.612-3.606-3.604-3.606    c-1.991,0-3.608,1.614-3.608,3.606C294.604,207.636,296.223,209.245,298.214,209.245"
   id="path3637" />
		<path
   fill="#00FF00"
   d="M319.453,209.245c1.989,0,3.604-1.608,3.604-3.604c0-1.992-1.614-3.606-3.604-3.606    c-1.998,0-3.607,1.614-3.607,3.606C315.845,207.636,317.455,209.245,319.453,209.245"
   id="path3639" />
		<path
   fill="#00FF00"
   d="M340.687,209.245c1.99,0,3.606-1.608,3.606-3.604c0-1.992-1.616-3.606-3.606-3.606    s-3.608,1.614-3.608,3.606C337.078,207.636,338.696,209.245,340.687,209.245"
   id="path3641" />
		<path
   fill="#00FF00"
   d="M361.925,209.245c1.99,0,3.609-1.608,3.609-3.604c0-1.992-1.619-3.606-3.609-3.606    s-3.607,1.614-3.607,3.606C358.316,207.636,359.934,209.245,361.925,209.245"
   id="path3643" />
		<path
   fill="#00FF00"
   d="M383.161,209.245c1.989,0,3.612-1.608,3.612-3.604c0-1.992-1.623-3.606-3.612-3.606    c-1.99,0-3.604,1.614-3.604,3.606C379.556,207.636,381.171,209.245,383.161,209.245"
   id="path3645" />
		<path
   fill="#00FF00"
   d="M404.397,209.245c1.991,0,3.605-1.608,3.605-3.604c0-1.992-1.614-3.606-3.605-3.606    c-1.989,0-3.604,1.614-3.604,3.606C400.794,207.636,402.408,209.245,404.397,209.245"
   id="path3647" />
		<path
   fill="#00FF00"
   d="M425.636,209.245c1.996,0,3.609-1.608,3.609-3.604c0-1.992-1.613-3.606-3.609-3.606    c-1.989,0-3.606,1.614-3.606,3.606C422.029,207.636,423.646,209.245,425.636,209.245"
   id="path3649" />
		<path
   fill="#00FF00"
   d="M446.872,209.245c1.993,0,3.605-1.608,3.605-3.604c0-1.992-1.612-3.606-3.605-3.606    c-1.987,0-3.604,1.614-3.604,3.606C443.268,207.636,444.885,209.245,446.872,209.245"
   id="path3651" />
		<path
   fill="#00FF00"
   d="M149.553,209.245c1.987,0,3.604-1.608,3.604-3.604c0-1.992-1.616-3.606-3.604-3.606    c-1.991,0-3.607,1.614-3.607,3.606C145.945,207.636,147.562,209.245,149.553,209.245"
   id="path3653" />
		<path
   fill="#00FF00"
   d="M170.786,209.245c1.992,0,3.604-1.608,3.604-3.604c0-1.992-1.61-3.606-3.604-3.606    c-1.99,0-3.604,1.614-3.604,3.606C167.181,207.636,168.796,209.245,170.786,209.245"
   id="path3655" />
		<path
   fill="#00FF00"
   d="M192.024,209.245c1.993,0,3.604-1.608,3.604-3.604c0-1.992-1.61-3.606-3.604-3.606    c-1.991,0-3.606,1.614-3.606,3.606C188.418,207.636,190.033,209.245,192.024,209.245"
   id="path3657" />
		<path
   fill="#00FF00"
   d="M213.259,209.245c1.995,0,3.609-1.608,3.609-3.604c0-1.992-1.614-3.606-3.609-3.606    c-1.988,0-3.603,1.614-3.603,3.606C209.656,207.636,211.27,209.245,213.259,209.245"
   id="path3659" />
		<path
   fill="#00FF00"
   d="M234.498,209.245c1.99,0,3.604-1.608,3.604-3.604c0-1.992-1.614-3.606-3.604-3.606    s-3.604,1.614-3.604,3.606C230.893,207.636,232.508,209.245,234.498,209.245"
   id="path3661" />
		<path
   fill="#00FF00"
   d="M255.735,209.245c1.99,0,3.604-1.608,3.604-3.604c0-1.992-1.613-3.606-3.604-3.606    c-1.989,0-3.604,1.614-3.604,3.606C252.133,207.636,253.746,209.245,255.735,209.245"
   id="path3663" />
		<path
   fill="#00FF00"
   d="M276.972,209.245c1.988,0,3.603-1.608,3.603-3.604c0-1.992-1.613-3.606-3.603-3.606    c-1.99,0-3.604,1.614-3.604,3.606C273.369,207.636,274.981,209.245,276.972,209.245"
   id="path3665" />
		<path
   fill="#00FF00"
   d="M138.934,230.485c1.986,0,3.601-1.613,3.601-3.604c0-1.99-1.613-3.605-3.601-3.605    c-1.991,0-3.607,1.615-3.607,3.605C135.327,228.872,136.942,230.485,138.934,230.485"
   id="path3667" />
		<path
   fill="#00FF00"
   d="M308.833,230.485c1.99,0,3.606-1.613,3.606-3.604c0-1.99-1.616-3.605-3.606-3.605    s-3.609,1.615-3.609,3.605C305.223,228.872,306.843,230.485,308.833,230.485"
   id="path3669" />
		<path
   fill="#00FF00"
   d="M330.068,230.485c1.99,0,3.606-1.613,3.606-3.604c0-1.99-1.616-3.605-3.606-3.605    c-1.994,0-3.604,1.615-3.604,3.605C326.465,228.872,328.074,230.485,330.068,230.485"
   id="path3671" />
		<path
   fill="#00FF00"
   d="M351.305,230.485c1.99,0,3.605-1.613,3.605-3.604c0-1.99-1.615-3.605-3.605-3.605    s-3.604,1.615-3.604,3.605C347.702,228.872,349.314,230.485,351.305,230.485"
   id="path3673" />
		<path
   fill="#00FF00"
   d="M372.542,230.485c1.992,0,3.611-1.613,3.611-3.604c0-1.99-1.619-3.605-3.611-3.605    c-1.99,0-3.605,1.615-3.605,3.605C368.936,228.872,370.552,230.485,372.542,230.485"
   id="path3675" />
		<path
   fill="#00FF00"
   d="M393.777,230.485c1.992,0,3.611-1.613,3.611-3.604c0-1.99-1.619-3.605-3.611-3.605    c-1.99,0-3.603,1.615-3.603,3.605C390.175,228.872,391.787,230.485,393.777,230.485"
   id="path3677" />
		<path
   fill="#00FF00"
   d="M415.019,230.485c1.99,0,3.603-1.613,3.603-3.604c0-1.99-1.611-3.605-3.603-3.605s-3.61,1.615-3.61,3.605    C411.409,228.872,413.028,230.485,415.019,230.485"
   id="path3679" />
		<path
   fill="#00FF00"
   d="M436.253,230.485c2,0,3.613-1.613,3.613-3.604c0-1.99-1.613-3.605-3.613-3.605    c-1.986,0-3.604,1.615-3.604,3.605C432.648,228.872,434.266,230.485,436.253,230.485"
   id="path3681" />
		<path
   fill="#00FF00"
   d="M160.17,230.485c1.991,0,3.608-1.613,3.608-3.604c0-1.99-1.617-3.605-3.608-3.605    c-1.994,0-3.606,1.615-3.606,3.605C156.563,228.872,158.176,230.485,160.17,230.485"
   id="path3683" />
		<path
   fill="#00FF00"
   d="M181.405,230.485c1.993,0,3.604-1.613,3.604-3.604c0-1.99-1.609-3.605-3.604-3.605    c-1.991,0-3.605,1.615-3.605,3.605C177.8,228.872,179.414,230.485,181.405,230.485"
   id="path3685" />
		<path
   fill="#00FF00"
   d="M202.642,230.485c1.993,0,3.605-1.613,3.605-3.604c0-1.99-1.612-3.605-3.605-3.605    c-1.992,0-3.604,1.615-3.604,3.605C199.038,228.872,200.649,230.485,202.642,230.485"
   id="path3687" />
		<path
   fill="#00FF00"
   d="M223.879,230.485c1.993,0,3.605-1.613,3.605-3.604c0-1.99-1.612-3.605-3.605-3.605    c-1.99,0-3.604,1.615-3.604,3.605C220.274,228.872,221.888,230.485,223.879,230.485"
   id="path3689" />
		<path
   fill="#00FF00"
   d="M245.117,230.485c1.991,0,3.604-1.613,3.604-3.604c0-1.99-1.613-3.605-3.604-3.605    c-1.99,0-3.604,1.615-3.604,3.605C241.512,228.872,243.127,230.485,245.117,230.485"
   id="path3691" />
		<path
   fill="#00FF00"
   d="M266.353,230.485c1.991,0,3.606-1.613,3.606-3.604c0-1.99-1.615-3.605-3.606-3.605    s-3.604,1.615-3.604,3.605C262.75,228.872,264.361,230.485,266.353,230.485"
   id="path3693" />
		<path
   fill="#00FF00"
   d="M287.591,230.485c1.991,0,3.604-1.613,3.604-3.604c0-1.99-1.612-3.605-3.604-3.605    c-1.989,0-3.605,1.615-3.605,3.605C283.985,228.872,285.601,230.485,287.591,230.485"
   id="path3695" />
		<path
   fill="#00FF00"
   d="M128.313,251.724c1.987,0,3.602-1.615,3.602-3.604c0-1.992-1.612-3.607-3.602-3.607    c-1.99,0-3.606,1.616-3.606,3.607C124.707,250.108,126.323,251.724,128.313,251.724"
   id="path3697" />
		<path
   fill="#00FF00"
   d="M298.214,251.724c1.991,0,3.604-1.615,3.604-3.604c0-1.992-1.612-3.607-3.604-3.607    c-1.991,0-3.608,1.616-3.608,3.607C294.604,250.108,296.223,251.724,298.214,251.724"
   id="path3699" />
		<path
   fill="#00FF00"
   d="M319.453,251.724c1.989,0,3.604-1.615,3.604-3.604c0-1.992-1.614-3.607-3.604-3.607    c-1.998,0-3.607,1.616-3.607,3.607C315.845,250.108,317.455,251.724,319.453,251.724"
   id="path3701" />
		<path
   fill="#00FF00"
   d="M340.687,251.724c1.99,0,3.606-1.615,3.606-3.604c0-1.992-1.616-3.607-3.606-3.607    s-3.608,1.616-3.608,3.607C337.078,250.108,338.696,251.724,340.687,251.724"
   id="path3703" />
		<path
   fill="#00FF00"
   d="M361.925,251.724c1.99,0,3.609-1.615,3.609-3.604c0-1.992-1.619-3.607-3.609-3.607    s-3.607,1.616-3.607,3.607C358.316,250.108,359.934,251.724,361.925,251.724"
   id="path3705" />
		<path
   fill="#00FF00"
   d="M383.161,251.724c1.989,0,3.612-1.615,3.612-3.604c0-1.992-1.623-3.607-3.612-3.607    c-1.99,0-3.604,1.616-3.604,3.607C379.556,250.108,381.171,251.724,383.161,251.724"
   id="path3707" />
		<path
   fill="#00FF00"
   d="M404.397,251.724c1.991,0,3.605-1.615,3.605-3.604c0-1.992-1.614-3.607-3.605-3.607    c-1.989,0-3.604,1.616-3.604,3.607C400.794,250.108,402.408,251.724,404.397,251.724"
   id="path3709" />
		<path
   fill="#00FF00"
   d="M425.636,251.724c1.996,0,3.609-1.615,3.609-3.604c0-1.992-1.613-3.607-3.609-3.607    c-1.989,0-3.606,1.616-3.606,3.607C422.029,250.108,423.646,251.724,425.636,251.724"
   id="path3711" />
		<path
   fill="#00FF00"
   d="M446.872,251.724c1.993,0,3.605-1.615,3.605-3.604c0-1.992-1.612-3.607-3.605-3.607    c-1.987,0-3.604,1.616-3.604,3.607C443.268,250.108,444.885,251.724,446.872,251.724"
   id="path3713" />
		<path
   fill="#00FF00"
   d="M149.553,251.724c1.987,0,3.604-1.615,3.604-3.604c0-1.992-1.616-3.607-3.604-3.607    c-1.991,0-3.607,1.616-3.607,3.607C145.945,250.108,147.562,251.724,149.553,251.724"
   id="path3715" />
		<path
   fill="#00FF00"
   d="M170.786,251.724c1.992,0,3.604-1.615,3.604-3.604c0-1.992-1.61-3.607-3.604-3.607    c-1.99,0-3.604,1.616-3.604,3.607C167.181,250.108,168.796,251.724,170.786,251.724"
   id="path3717" />
		<path
   fill="#00FF00"
   d="M192.024,251.724c1.993,0,3.604-1.615,3.604-3.604c0-1.992-1.61-3.607-3.604-3.607    c-1.991,0-3.606,1.616-3.606,3.607C188.418,250.108,190.033,251.724,192.024,251.724"
   id="path3719" />
		<path
   fill="#00FF00"
   d="M213.259,251.724c1.995,0,3.609-1.615,3.609-3.604c0-1.992-1.614-3.607-3.609-3.607    c-1.988,0-3.603,1.616-3.603,3.607C209.656,250.108,211.27,251.724,213.259,251.724"
   id="path3721" />
		<path
   fill="#00FF00"
   d="M234.498,251.724c1.99,0,3.604-1.615,3.604-3.604c0-1.992-1.614-3.607-3.604-3.607    s-3.604,1.616-3.604,3.607C230.893,250.108,232.508,251.724,234.498,251.724"
   id="path3723" />
		<path
   fill="#00FF00"
   d="M255.735,251.724c1.99,0,3.604-1.615,3.604-3.604c0-1.992-1.613-3.607-3.604-3.607    c-1.989,0-3.604,1.616-3.604,3.607C252.133,250.108,253.746,251.724,255.735,251.724"
   id="path3725" />
		<path
   fill="#00FF00"
   d="M276.972,251.724c1.988,0,3.603-1.615,3.603-3.604c0-1.992-1.613-3.607-3.603-3.607    c-1.99,0-3.604,1.616-3.604,3.607C273.369,250.108,274.981,251.724,276.972,251.724"
   id="path3727" />
		<path
   fill="#00FF00"
   d="M138.934,272.96c1.986,0,3.601-1.614,3.601-3.604c0-1.992-1.613-3.607-3.601-3.607    c-1.991,0-3.607,1.615-3.607,3.607C135.326,271.346,136.942,272.96,138.934,272.96"
   id="path3729" />
		<path
   fill="#00FF00"
   d="M308.833,272.96c1.99,0,3.606-1.614,3.606-3.604c0-1.992-1.616-3.607-3.606-3.607    s-3.609,1.615-3.609,3.607C305.223,271.346,306.843,272.96,308.833,272.96"
   id="path3731" />
		<path
   fill="#00FF00"
   d="M330.068,272.96c1.99,0,3.606-1.614,3.606-3.604c0-1.992-1.616-3.607-3.606-3.607    c-1.994,0-3.604,1.615-3.604,3.607C326.466,271.346,328.074,272.96,330.068,272.96"
   id="path3733" />
		<path
   fill="#00FF00"
   d="M351.305,272.96c1.99,0,3.605-1.614,3.605-3.604c0-1.992-1.615-3.607-3.605-3.607    s-3.604,1.615-3.604,3.607C347.702,271.346,349.314,272.96,351.305,272.96"
   id="path3735" />
		<path
   fill="#00FF00"
   d="M372.542,272.96c1.992,0,3.611-1.614,3.611-3.604c0-1.992-1.619-3.607-3.611-3.607    c-1.99,0-3.605,1.615-3.605,3.607C368.936,271.346,370.552,272.96,372.542,272.96"
   id="path3737" />
		<path
   fill="#00FF00"
   d="M393.777,272.96c1.992,0,3.611-1.614,3.611-3.604c0-1.992-1.619-3.607-3.611-3.607    c-1.99,0-3.603,1.615-3.603,3.607C390.176,271.346,391.787,272.96,393.777,272.96"
   id="path3739" />
		<path
   fill="#00FF00"
   d="M415.019,272.96c1.99,0,3.603-1.614,3.603-3.604c0-1.992-1.611-3.607-3.603-3.607s-3.61,1.615-3.61,3.607    C411.408,271.346,413.028,272.96,415.019,272.96"
   id="path3741" />
		<path
   fill="#00FF00"
   d="M436.253,272.96c2,0,3.613-1.614,3.613-3.604c0-1.992-1.613-3.607-3.613-3.607    c-1.986,0-3.604,1.615-3.604,3.607C432.647,271.346,434.266,272.96,436.253,272.96"
   id="path3743" />
		<path
   fill="#00FF00"
   d="M160.17,272.96c1.991,0,3.608-1.614,3.608-3.604c0-1.992-1.617-3.607-3.608-3.607    c-1.994,0-3.606,1.615-3.606,3.607C156.562,271.346,158.176,272.96,160.17,272.96"
   id="path3745" />
		<path
   fill="#00FF00"
   d="M181.405,272.96c1.993,0,3.604-1.614,3.604-3.604c0-1.992-1.609-3.607-3.604-3.607    c-1.991,0-3.605,1.615-3.605,3.607C177.8,271.346,179.414,272.96,181.405,272.96"
   id="path3747" />
		<path
   fill="#00FF00"
   d="M202.642,272.96c1.993,0,3.605-1.614,3.605-3.604c0-1.992-1.612-3.607-3.605-3.607    c-1.992,0-3.604,1.615-3.604,3.607C199.038,271.346,200.649,272.96,202.642,272.96"
   id="path3749" />
		<path
   fill="#00FF00"
   d="M223.879,272.96c1.993,0,3.605-1.614,3.605-3.604c0-1.992-1.612-3.607-3.605-3.607    c-1.99,0-3.604,1.615-3.604,3.607C220.273,271.346,221.888,272.96,223.879,272.96"
   id="path3751" />
		<path
   fill="#00FF00"
   d="M245.117,272.96c1.991,0,3.604-1.614,3.604-3.604c0-1.992-1.613-3.607-3.604-3.607    c-1.99,0-3.604,1.615-3.604,3.607C241.512,271.346,243.127,272.96,245.117,272.96"
   id="path3753" />
		<path
   fill="#00FF00"
   d="M266.353,272.96c1.991,0,3.606-1.614,3.606-3.604c0-1.992-1.615-3.607-3.606-3.607    s-3.604,1.615-3.604,3.607C262.75,271.346,264.361,272.96,266.353,272.96"
   id="path3755" />
		<path
   fill="#00FF00"
   d="M128.313,294.209c1.987,0,3.602-1.612,3.602-3.604c0-1.998-1.612-3.615-3.602-3.615    c-1.99,0-3.606,1.617-3.606,3.615C124.707,292.596,126.323,294.209,128.313,294.209"
   id="path3757" />
		<path
   fill="#00FF00"
   d="M319.453,294.209c1.989,0,3.604-1.612,3.604-3.604c0-1.998-1.614-3.615-3.604-3.615    c-1.998,0-3.607,1.617-3.607,3.615C315.845,292.596,317.455,294.209,319.453,294.209"
   id="path3759" />
		<path
   fill="#00FF00"
   d="M340.687,294.209c1.99,0,3.606-1.612,3.606-3.604c0-1.998-1.616-3.615-3.606-3.615    s-3.608,1.617-3.608,3.615C337.078,292.596,338.696,294.209,340.687,294.209"
   id="path3761" />
		<path
   fill="#00FF00"
   d="M361.925,294.209c1.99,0,3.609-1.612,3.609-3.604c0-1.998-1.619-3.615-3.609-3.615    s-3.607,1.617-3.607,3.615C358.316,292.596,359.934,294.209,361.925,294.209"
   id="path3763" />
		<path
   fill="#00FF00"
   d="M383.161,294.209c1.989,0,3.612-1.612,3.612-3.604c0-1.998-1.623-3.615-3.612-3.615    c-1.99,0-3.604,1.617-3.604,3.615C379.556,292.596,381.171,294.209,383.161,294.209"
   id="path3765" />
		<path
   fill="#00FF00"
   d="M404.397,294.209c1.991,0,3.605-1.612,3.605-3.604c0-1.998-1.614-3.615-3.605-3.615    c-1.989,0-3.604,1.617-3.604,3.615C400.794,292.596,402.408,294.209,404.397,294.209"
   id="path3767" />
		<path
   fill="#00FF00"
   d="M425.636,294.209c1.996,0,3.609-1.612,3.609-3.604c0-1.998-1.613-3.615-3.609-3.615    c-1.989,0-3.606,1.617-3.606,3.615C422.029,292.596,423.646,294.209,425.636,294.209"
   id="path3769" />
		<path
   fill="#00FF00"
   d="M446.872,294.209c1.993,0,3.605-1.612,3.605-3.604c0-1.998-1.612-3.615-3.605-3.615    c-1.987,0-3.604,1.617-3.604,3.615C443.268,292.596,444.885,294.209,446.872,294.209"
   id="path3771" />
		<path
   fill="#00FF00"
   d="M149.553,294.209c1.987,0,3.604-1.612,3.604-3.604c0-1.998-1.616-3.615-3.604-3.615    c-1.991,0-3.607,1.617-3.607,3.615C145.945,292.596,147.562,294.209,149.553,294.209"
   id="path3773" />
		<path
   fill="#00FF00"
   d="M170.786,294.209c1.992,0,3.604-1.612,3.604-3.604c0-1.998-1.61-3.615-3.604-3.615    c-1.99,0-3.604,1.617-3.604,3.615C167.181,292.596,168.796,294.209,170.786,294.209"
   id="path3775" />
		<path
   fill="#00FF00"
   d="M192.024,294.209c1.993,0,3.604-1.612,3.604-3.604c0-1.998-1.61-3.615-3.604-3.615    c-1.991,0-3.606,1.617-3.606,3.615C188.418,292.596,190.033,294.209,192.024,294.209"
   id="path3777" />
		<path
   fill="#00FF00"
   d="M213.259,294.209c1.995,0,3.609-1.612,3.609-3.604c0-1.998-1.614-3.615-3.609-3.615    c-1.988,0-3.603,1.617-3.603,3.615C209.656,292.596,211.27,294.209,213.259,294.209"
   id="path3779" />
		<path
   fill="#00FF00"
   d="M234.498,294.209c1.99,0,3.604-1.612,3.604-3.604c0-1.998-1.614-3.615-3.604-3.615    s-3.604,1.617-3.604,3.615C230.893,292.596,232.508,294.209,234.498,294.209"
   id="path3781" />
		<path
   fill="#00FF00"
   d="M255.735,294.209c1.99,0,3.604-1.612,3.604-3.604c0-1.998-1.613-3.615-3.604-3.615    c-1.989,0-3.604,1.617-3.604,3.615C252.133,292.596,253.746,294.209,255.735,294.209"
   id="path3783" />
		<path
   fill="#00FF00"
   d="M138.934,315.446c1.986,0,3.601-1.615,3.601-3.605c0-1.991-1.613-3.605-3.601-3.605    c-1.991,0-3.607,1.614-3.607,3.605C135.326,313.831,136.942,315.446,138.934,315.446"
   id="path3785" />
		<path
   fill="#00FF00"
   d="M372.542,315.446c1.992,0,3.611-1.615,3.611-3.605c0-1.991-1.619-3.605-3.611-3.605    c-1.99,0-3.605,1.614-3.605,3.605C368.936,313.831,370.552,315.446,372.542,315.446"
   id="path3787" />
		<path
   fill="#00FF00"
   d="M393.777,315.446c1.992,0,3.611-1.615,3.611-3.605c0-1.991-1.619-3.605-3.611-3.605    c-1.99,0-3.603,1.614-3.603,3.605C390.176,313.831,391.787,315.446,393.777,315.446"
   id="path3789" />
		<path
   fill="#00FF00"
   d="M415.019,315.446c1.99,0,3.603-1.615,3.603-3.605c0-1.991-1.611-3.605-3.603-3.605s-3.61,1.614-3.61,3.605    C411.408,313.831,413.028,315.446,415.019,315.446"
   id="path3791" />
		<path
   fill="#00FF00"
   d="M436.253,315.446c2,0,3.613-1.615,3.613-3.605c0-1.991-1.613-3.605-3.613-3.605    c-1.986,0-3.604,1.614-3.604,3.605C432.647,313.831,434.266,315.446,436.253,315.446"
   id="path3793" />
		<path
   fill="#00FF00"
   d="M160.17,315.446c1.991,0,3.608-1.615,3.608-3.605c0-1.991-1.617-3.605-3.608-3.605    c-1.994,0-3.606,1.614-3.606,3.605C156.562,313.831,158.176,315.446,160.17,315.446"
   id="path3795" />
		<path
   fill="#00FF00"
   d="M181.405,315.446c1.993,0,3.604-1.615,3.604-3.605c0-1.991-1.609-3.605-3.604-3.605    c-1.991,0-3.605,1.614-3.605,3.605C177.8,313.831,179.414,315.446,181.405,315.446"
   id="path3797" />
		<path
   fill="#00FF00"
   d="M202.642,315.446c1.993,0,3.605-1.615,3.605-3.605c0-1.991-1.612-3.605-3.605-3.605    c-1.992,0-3.604,1.614-3.604,3.605C199.038,313.831,200.649,315.446,202.642,315.446"
   id="path3799" />
		<path
   fill="#00FF00"
   d="M128.313,336.686c1.987,0,3.602-1.613,3.602-3.604c0-1.995-1.612-3.61-3.602-3.61    c-1.99,0-3.606,1.616-3.606,3.61C124.707,335.073,126.323,336.686,128.313,336.686"
   id="path3801" />
		<path
   fill="#00FF00"
   d="M404.397,336.686c1.991,0,3.605-1.613,3.605-3.604c0-1.995-1.614-3.61-3.605-3.61    c-1.989,0-3.604,1.616-3.604,3.61C400.794,335.073,402.408,336.686,404.397,336.686"
   id="path3803" />
		<path
   fill="#00FF00"
   d="M425.636,336.686c1.996,0,3.609-1.613,3.609-3.604c0-1.995-1.613-3.61-3.609-3.61    c-1.989,0-3.606,1.616-3.606,3.61C422.029,335.073,423.646,336.686,425.636,336.686"
   id="path3805" />
		<path
   fill="#00FF00"
   d="M446.872,336.686c1.993,0,3.605-1.613,3.605-3.604c0-1.995-1.612-3.61-3.605-3.61    c-1.987,0-3.604,1.616-3.604,3.61C443.268,335.073,444.885,336.686,446.872,336.686"
   id="path3807" />
		<path
   fill="#00FF00"
   d="M149.553,336.686c1.987,0,3.604-1.613,3.604-3.604c0-1.995-1.616-3.61-3.604-3.61    c-1.991,0-3.607,1.616-3.607,3.61C145.945,335.073,147.562,336.686,149.553,336.686"
   id="path3809" />
		<path
   fill="#00FF00"
   d="M170.786,336.686c1.992,0,3.604-1.613,3.604-3.604c0-1.995-1.61-3.61-3.604-3.61    c-1.99,0-3.604,1.616-3.604,3.61C167.181,335.073,168.796,336.686,170.786,336.686"
   id="path3811" />
		<path
   fill="#00FF00"
   d="M138.934,357.921c1.986,0,3.601-1.608,3.601-3.603s-1.613-3.609-3.601-3.609    c-1.991,0-3.607,1.615-3.607,3.609C135.326,356.312,136.942,357.921,138.934,357.921"
   id="path3813" />
		<path
   fill="#00FF00"
   d="M436.253,357.921c2,0,3.613-1.608,3.613-3.603s-1.613-3.609-3.613-3.609c-1.986,0-3.604,1.615-3.604,3.609    C432.647,356.312,434.266,357.921,436.253,357.921"
   id="path3815" />
		<path
   fill="#00FF00"
   d="M128.313,379.16c1.987,0,3.602-1.615,3.602-3.601c0-1.995-1.612-3.609-3.602-3.609    c-1.99,0-3.606,1.614-3.606,3.609C124.707,377.544,126.323,379.16,128.313,379.16"
   id="path3817" />
		<path
   fill="#00FF00"
   d="M446.872,379.16c1.993,0,3.605-1.615,3.605-3.601c0-1.995-1.612-3.609-3.605-3.609    c-1.987,0-3.604,1.614-3.604,3.609C443.268,377.544,444.885,379.16,446.872,379.16"
   id="path3819" />
	</g>
	<path
   display="inline"
   fill="#00FF00"
   d="M413.991,349.93c-30.466-30.466-76.459-49.781-121.145-51.199v-25.186   c0-2.938-2.377-5.307-5.311-5.307c-2.935,0-5.31,2.37-5.31,5.307v25.186c-44.979,1.417-91.002,20.57-121.22,50.788   c-22.865,22.871-34.953,50.264-34.948,79.212c0,2.931,2.372,5.307,5.306,5.307c2.936,0,5.312-2.375,5.312-5.307   c0-14.287,11.626-25.913,25.909-25.913c14.288,0,25.916,11.626,25.916,25.913c0,2.931,2.372,5.307,5.31,5.307   c2.928,0,5.308-2.375,5.308-5.307c0-14.287,11.622-25.913,25.911-25.913c14.29,0,25.913,11.626,25.913,25.91   c0,2.935,2.375,5.31,5.311,5.31c2.933,0,5.308-2.375,5.308-5.31c0-12.488,8.887-22.945,20.668-25.376v205.644   c0,18.11,14.734,32.853,32.844,32.853c18.112,0,32.842-14.741,32.842-32.853c0-6.894-2.113-13.498-6.117-19.093   c-1.703-2.386-5.018-2.933-7.398-1.229c-2.391,1.706-2.94,5.019-1.232,7.407c2.705,3.777,4.136,8.25,4.136,12.914   c0,12.254-9.973,22.23-22.229,22.23c-12.251,0-22.225-9.978-22.225-22.23V403.395c11.714,2.479,20.539,12.891,20.539,25.333   c0,2.935,2.375,5.31,5.311,5.31c2.925,0,5.308-2.375,5.308-5.31c0-14.287,11.624-25.916,25.914-25.916   c14.283,0,25.917,11.628,25.917,25.916c0,2.935,2.366,5.31,5.305,5.31c2.93,0,5.306-2.375,5.306-5.31   c0-14.287,11.629-25.916,25.91-25.916c14.419,0,26.152,11.628,26.152,25.916c0,2.935,2.374,5.31,5.311,5.31   c2.925,0,5.309-2.375,5.309-5.31C449.126,400.159,436.98,372.909,413.991,349.93"
   id="path3821" />
	<path
   display="inline"
   fill="#006837"
   d="M240.244,345.274l-0.003-7.166c0-1.878-1.522-3.4-3.401-3.4h-7.648   c-1.878,0-3.401,1.523-3.401,3.401s1.523,3.401,3.401,3.401h4.249l0.002,3.765c0,2.99-2.431,5.422-5.419,5.422   c-2.99,0-5.422-2.432-5.422-5.422v-14.332c0-2.988,2.432-5.419,5.422-5.419c2.319,0,4.382,1.474,5.13,3.667   c0.608,1.778,2.542,2.727,4.318,2.12c1.777-0.607,2.727-2.541,2.119-4.318c-1.688-4.948-6.338-8.271-11.568-8.271   c-6.741,0-12.226,5.481-12.226,12.222v14.332c0,6.741,5.484,12.225,12.226,12.225C234.761,357.5,240.244,352.017,240.244,345.274z"
   id="path3823" />
	<path
   display="inline"
   fill="#006837"
   d="M258.186,318.722c-6.74,0-12.224,5.481-12.224,12.222v22.233c0,1.878,1.523,3.4,3.401,3.4   s3.401-1.522,3.401-3.4v-9.581h10.841v9.581c0,1.878,1.522,3.4,3.4,3.4c1.879,0,3.401-1.522,3.401-3.4v-22.233   C270.41,324.205,264.926,318.722,258.186,318.722z M252.766,336.794v-5.85c0-2.988,2.432-5.419,5.42-5.419   c2.987,0,5.421,2.431,5.421,5.419v5.85H252.766z"
   id="path3825" />
	<path
   display="inline"
   fill="#006837"
   d="M338.02,356.579c1.879,0,3.401-1.522,3.401-3.4v-9.581h10.842v9.581   c0,1.878,1.521,3.4,3.4,3.4c1.88,0,3.401-1.522,3.401-3.4v-22.233c0-6.739-5.483-12.222-12.224-12.222   c-6.741,0-12.225,5.481-12.225,12.222v22.233C334.618,355.056,336.141,356.579,338.02,356.579z M346.843,325.525   c2.988,0,5.421,2.431,5.421,5.419v5.85h-10.842v-5.85C341.422,327.956,343.853,325.525,346.843,325.525z"
   id="path3827" />
	<path
   display="inline"
   fill="#006837"
   d="M316.608,318.722c-6.739,0-12.222,5.481-12.222,12.222v14.332   c0,6.741,5.482,12.225,12.222,12.225c6.738,0,12.219-5.483,12.219-12.225v-14.332C328.827,324.205,323.346,318.722,316.608,318.722   z M322.024,345.276c0,2.99-2.43,5.422-5.416,5.422c-2.988,0-5.419-2.432-5.419-5.422v-14.332c0-2.988,2.431-5.419,5.419-5.419   c2.986,0,5.416,2.431,5.416,5.419V345.276z"
   id="path3829" />
	<path
   display="inline"
   fill="#006837"
   d="M296.167,339.465c1.834-2.109,2.916-4.865,2.916-7.854   c0-6.599-5.368-11.967-11.969-11.967l-7.574,0.003c-1.878,0-3.399,1.522-3.399,3.4v30.13c0,1.878,1.522,3.4,3.4,3.4   s3.401-1.522,3.401-3.4v-26.729l4.173-0.002c2.848,0,5.165,2.317,5.165,5.165c0,2.409-1.624,4.464-3.949,4.999   c-1.629,0.374-2.745,1.877-2.632,3.544s1.421,3.006,3.085,3.158c2.504,0.228,4.467,2.381,4.467,4.9v4.963   c0,1.879,1.523,3.401,3.401,3.401s3.401-1.522,3.401-3.401v-4.963C300.053,344.737,298.568,341.613,296.167,339.465z"
   id="path3831" />
	<path
   display="inline"
   fill="#006837"
   d="M177.249,363.862c-1.409,0-2.551,1.142-2.551,2.551v8.33h-7.682v-8.33   c0-1.409-1.143-2.551-2.552-2.551c-1.408,0-2.551,1.142-2.551,2.551v23.76c0,1.409,1.143,2.552,2.551,2.552   c1.409,0,2.552-1.143,2.552-2.552v-10.327h7.682v10.327c0,1.409,1.142,2.552,2.551,2.552s2.551-1.143,2.551-2.552v-23.76   C179.8,365.004,178.658,363.862,177.249,363.862z"
   id="path3833" />
	<path
   display="inline"
   fill="#006837"
   d="M346.885,387.622h-8.863v-21.208c0-1.409-1.142-2.551-2.551-2.551   s-2.551,1.142-2.551,2.551v23.76c0,1.409,1.142,2.552,2.551,2.552h11.414c1.409,0,2.551-1.143,2.551-2.552   C349.436,388.765,348.295,387.622,346.885,387.622z"
   id="path3835" />
	<path
   display="inline"
   fill="#006837"
   d="M223.577,376.206c1.388,0.207,2.692-0.751,2.9-2.146c0.071-0.479,0.107-0.957,0.107-1.418   c0-5.242-4.264-9.506-9.505-9.506s-9.505,4.265-9.505,9.506v11.302c0,5.243,4.264,9.508,9.505,9.508s9.505-4.265,9.505-9.508   c0-0.516-0.045-1.048-0.135-1.581c-0.233-1.389-1.548-2.323-2.938-2.094c-1.391,0.232-2.327,1.549-2.095,2.938   c0.043,0.258,0.064,0.499,0.064,0.736c0,2.429-1.976,4.405-4.403,4.405s-4.403-1.977-4.403-4.405v-11.302   c0-2.429,1.976-4.404,4.403-4.404s4.403,1.976,4.403,4.404c0,0.21-0.019,0.433-0.052,0.664   C221.223,374.699,222.183,375.998,223.577,376.206z"
   id="path3837" />
	<path
   display="inline"
   fill="#006837"
   d="M325.704,376.207c1.392,0.206,2.689-0.76,2.896-2.152c0.07-0.48,0.104-0.955,0.104-1.412   c0-5.242-4.263-9.506-9.503-9.506c-5.241,0-9.506,4.265-9.506,9.506v11.302c0,5.243,4.266,9.508,9.506,9.508   s9.503-4.265,9.503-9.508c0-0.51-0.043-1.023-0.132-1.568c-0.226-1.39-1.534-2.334-2.928-2.107   c-1.391,0.227-2.334,1.537-2.108,2.928c0.044,0.271,0.065,0.515,0.065,0.748c0,2.429-1.974,4.405-4.401,4.405   s-4.403-1.977-4.403-4.405v-11.302c0-2.429,1.976-4.404,4.403-4.404s4.401,1.976,4.401,4.404c0,0.209-0.019,0.435-0.052,0.67   C323.346,374.707,324.31,376.002,325.704,376.207z"
   id="path3839" />
	<path
   display="inline"
   fill="#006837"
   d="M367.769,363.862c-1.409,0-2.551,1.142-2.551,2.551v17.53   c0,2.429-1.978,4.405-4.405,4.405s-4.404-1.977-4.404-4.405v-17.53c0-1.409-1.142-2.551-2.551-2.551s-2.551,1.142-2.551,2.551   v17.53c0,5.243,4.264,9.508,9.506,9.508s9.507-4.265,9.507-9.508v-17.53C370.319,365.004,369.178,363.862,367.769,363.862z"
   id="path3841" />
	<path
   display="inline"
   fill="#006837"
   d="M193.822,363.136c-5.241,0-9.505,4.265-9.505,9.507v17.53   c0,1.409,1.142,2.552,2.551,2.552s2.551-1.143,2.551-2.552v-7.849h8.808v7.849c0,1.409,1.142,2.552,2.551,2.552   s2.551-1.143,2.551-2.552v-17.53C203.329,367.4,199.064,363.136,193.822,363.136z M189.419,377.222v-4.58   c0-2.43,1.976-4.404,4.403-4.404s4.404,1.976,4.404,4.404v4.58H189.419z"
   id="path3843" />
	<path
   display="inline"
   fill="#006837"
   d="M265.956,387.622h-6.022c-1.515,0-2.745-1.231-2.745-2.748v-5.312h6.782   c1.408,0,2.551-1.143,2.551-2.551c0-1.409-1.143-2.552-2.551-2.552h-6.782v-2.747c0-1.515,1.23-2.748,2.745-2.748h5.371   c1.408,0,2.551-1.142,2.551-2.551s-1.143-2.551-2.551-2.551h-5.371c-4.327,0-7.848,3.521-7.848,7.85v13.162   c0,4.329,3.521,7.851,7.848,7.851h6.022c1.409,0,2.551-1.143,2.551-2.551C268.507,388.765,267.365,387.622,265.956,387.622z"
   id="path3845" />
	<path
   display="inline"
   fill="#006837"
   d="M410.398,387.622h-6.022c-1.516,0-2.747-1.231-2.747-2.748v-5.312h6.783   c1.409,0,2.552-1.143,2.552-2.551c0-1.409-1.143-2.552-2.552-2.552h-6.783v-2.747c0-1.515,1.231-2.748,2.747-2.748h5.37   c1.409,0,2.552-1.142,2.552-2.551s-1.143-2.551-2.552-2.551h-5.37c-4.328,0-7.85,3.521-7.85,7.85v13.162   c0,4.329,3.521,7.851,7.85,7.851h6.022c1.409,0,2.551-1.143,2.551-2.551C412.949,388.765,411.808,387.622,410.398,387.622z"
   id="path3847" />
	<path
   display="inline"
   fill="#006837"
   d="M241.994,375.635l5.562-7.732c0.822-1.144,0.562-2.738-0.582-3.561   c-1.145-0.822-2.737-0.562-3.562,0.581l-7.054,9.81v-8.317c0-1.409-1.143-2.551-2.551-2.551c-1.409,0-2.552,1.142-2.552,2.551   v23.757c0,1.409,1.143,2.552,2.552,2.552c1.408,0,2.551-1.143,2.551-2.552v-9.894h2.732c2.428,0,4.402,1.976,4.402,4.404v5.488   c0,1.409,1.143,2.552,2.551,2.552c1.409,0,2.552-1.143,2.552-2.552v-5.488C248.595,380.455,245.818,376.866,241.994,375.635z"
   id="path3849" />
	<path
   display="inline"
   fill="#006837"
   d="M389.047,376.219c0.591-1.171,0.909-2.482,0.909-3.843c0-4.7-3.82-8.522-8.525-8.522   l-3.877,0.012c-1.406,0.004-2.543,1.146-2.543,2.551v23.757c0,1.409,1.142,2.552,2.551,2.552h6.434   c4.979,0,9.028-4.052,9.028-9.029C393.022,380.605,391.46,377.844,389.047,376.219z M383.994,387.622h-3.883v-18.663l1.326-0.004   c1.884,0,3.417,1.534,3.417,3.42c0,1.15-0.536,2.169-1.469,2.797c-0.886,0.596-1.307,1.679-1.058,2.715   c0.25,1.036,1.118,1.809,2.178,1.936c1.945,0.233,3.415,1.898,3.415,3.873C387.922,385.86,386.159,387.622,383.994,387.622z"
   id="path3851" />
	<g
   display="inline"
   id="g3853">
		<g
   id="g3855">
			<path
   fill="#006837"
   d="M287.838,392.725c-1.408,0-2.551-1.143-2.551-2.552V386.2c0-2.015-1.553-3.711-3.61-3.945     c-1.227-0.139-2.178-1.136-2.259-2.366c-0.081-1.231,0.731-2.345,1.929-2.644c1.871-0.467,3.177-2.144,3.177-4.077     c0-2.317-1.886-4.203-4.204-4.203l-3.213,0.001v21.207c0,1.409-1.143,2.552-2.551,2.552c-1.409,0-2.552-1.143-2.552-2.552     v-23.757c0-1.409,1.143-2.55,2.551-2.551l5.765-0.003c5.133,0,9.308,4.174,9.308,9.306c0,2.36-0.88,4.547-2.365,6.208     c1.929,1.671,3.13,4.121,3.13,6.824v3.973C290.389,391.583,289.247,392.725,287.838,392.725z"
   id="path3857" />
		</g>
	</g>
</g>
</svg>